# File produced by Open Asset Import Library (http://www.assimp.sf.net)
# (assimp v5.2.0)

mtllib buckets.mtl

# 80 vertex positions
v  -0.775991499 -9.70050526 1.40446615
v  -0.775991499 -9.70050526 0.245100886
v  -0.775991559 -10.297163 1.40446615
v  -0.775991499 -10.297163 0.245100886
v  -0.340156883 -9.70050526 1.40446615
v  -0.340156883 -9.70050526 0.245100886
v  -0.340156883 -10.297163 1.40446615
v  -0.340156883 -10.297163 0.245100886
v  -0.754666448 -9.72791195 0.000765034521
v  -0.754666448 -10.2697573 0.000765034521
v  -0.361481965 -9.72791195 0.00076500437
v  -0.361481965 -10.2697573 0.00076500437
v  -0.760979176 -9.71625042 1.40446627
v  -0.760979176 -10.2814188 1.40446627
v  -0.355169266 -10.2814188 1.40446615
v  -0.355169266 -9.71625042 1.40446615
v  -0.740436733 -9.74492455 1.07121038
v  -0.740436733 -10.254611 1.07121038
v  -0.375711679 -10.254611 1.07121027
v  -0.375711679 -9.74492455 1.07121027
v  -0.736559927 -9.09426308 1.19202173
v  -0.736559927 -9.09426308 0.244653746
v  -0.736559927 -9.69092083 1.19202173
v  -0.736559927 -9.69092083 0.244653746
v  -0.300725281 -9.09426308 1.19202185
v  -0.300725281 -9.09426308 0.244653776
v  -0.300725281 -9.69092083 1.19202185
v  -0.300725281 -9.69092083 0.244653776
v  -0.715234876 -9.12166882 0.00031790731
v  -0.715234816 -9.66351509 0.00031790731
v  -0.322050363 -9.12166882 0.000317877188
v  -0.322050363 -9.66351509 0.000317877188
v  -0.721547544 -9.11000729 1.19202185
v  -0.721547544 -9.67517567 1.19202185
v  -0.315737665 -9.67517567 1.19202185
v  -0.315737665 -9.11000729 1.19202185
v  -0.701005101 -9.13868141 0.858972013
v  -0.701005101 -9.64836884 0.858972013
v  -0.336280078 -9.64836884 0.858972013
v  -0.336280078 -9.13868141 0.858972013
v  -0.270764947 -9.09426308 0.244653776
v  -0.270764947 -9.69092083 0.873363674
v  -0.270764947 -9.09426308 0.873363674
v  -0.270764947 -9.69092083 0.244653776
v  0.165069729 -9.09426308 0.873363674
v  0.165069744 -9.09426308 0.244653776
v  0.165069744 -9.69092083 0.244653776
v  0.165069744 -9.69092083 0.873363674
v  -0.24943988 -9.12166882 0.000317867059
v  -0.24943988 -9.66351509 0.000317867059
v  0.143744648 -9.12166882 0.000317896542
v  0.143744662 -9.66351509 0.000317896542
v  -0.255752563 -9.11000729 0.873363674
v  -0.255752563 -9.67517567 0.873363674
v  0.150057286 -9.67517567 0.873363674
v  0.150057301 -9.11000729 0.873363674
v  -0.23521015 -9.13868141 0.540655792
v  -0.23521015 -9.64836884 0.540655792
v  0.129514933 -9.64836884 0.540655792
v  0.129514948 -9.13868141 0.540655792
v  -0.290004164 -9.71531391 1.2982384
v  -0.290004164 -9.71531391 0.245100886
v  -0.290004164 -10.3119717 1.2982384
v  -0.290004164 -10.3119717 0.245100886
v  0.145830557 -9.71531391 1.2982384
v  0.145830557 -9.71531391 0.245100886
v  0.145830557 -10.3119717 1.2982384
v  0.145830557 -10.3119717 0.245100886
v  -0.268679082 -9.74271965 0.000765007979
v  -0.268679082 -10.2845659 0.000765007979
v  0.124505453 -9.74271965 0.000764977885
v  0.124505475 -10.2845659 0.000764977885
v  -0.274991781 -9.73105812 1.29823828
v  -0.274991781 -10.2962275 1.29823828
v  0.130818114 -10.2962275 1.2982384
v  0.130818114 -9.73105812 1.2982384
v  -0.254449338 -9.7597332 0.965280175
v  -0.254449338 -10.2694197 0.965280175
v  0.110275723 -10.2694197 0.965280175
v  0.110275716 -9.7597332 0.965280175

# 82 UV coordinates
vt 0.202726007 0.996046007 0
vt 0.202726007 0.468044013 0
vt 0.472023994 0.996046007 0
vt 0.472023994 0.468044013 0
vt 0.00412299996 0.996046007 0
vt 0.00412299996 0.468044013 0
vt 0.670755029 0.996046007 0
vt 0.670755029 0.468044013 0
vt 0.941695988 0.996046007 0
vt 0.941695988 0.468044013 0
vt 0.202726007 0.356586009 0
vt 0.472023994 0.356586009 0
vt 0.00412299996 0.356586009 0
vt 0.670755029 0.356586009 0
vt 0.941695988 0.356586009 0
vt 0.250661999 0.183167994 0
vt 0.00390399992 0.00411099987 0
vt 0.250661999 0.00411099987 0
vt 0.00390399992 0.183167994 0
vt 0.26047501 0.182172 0
vt 0.496843994 0.176062003 0
vt 0.503250003 0.182172 0
vt 0.266882002 0.176062003 0
vt 0.26047501 0.00483400002 0
vt 0.266882002 0.0109430002 0
vt 0.503250003 0.00483400002 0
vt 0.496843994 0.0109430002 0
vt 0.251603991 0.192456007 0
vt 0.00410499983 0.345840007 0
vt 0.00410499983 0.192456007 0
vt 0.251603991 0.345840007 0
vt 0.429383993 0.192456007 0
vt 0.429383993 0.345840007 0
vt 0.677249014 0.192456007 0
vt 0.677249014 0.345840007 0
vt 0.854111016 0.192456007 0
vt 0.854111016 0.345840007 0
vt 0.516602993 0.00409100018 0
vt 0.765823007 0.182429001 0
vt 0.516602993 0.182429001 0
vt 0.765823007 0.00409100018 0
vt 0.202726007 0.899076998 0
vt 0.472023994 0.899076998 0
vt 0.00412299996 0.899076998 0
vt 0.670755029 0.899076998 0
vt 0.941695988 0.899076998 0
vt 0.496843994 0.176063001 0
vt 0.266882002 0.176063001 0
vt 0.677115023 0.192456007 0
vt 0.429616988 0.345840007 0
vt 0.429616988 0.192456007 0
vt 0.677115023 0.345840007 0
vt 0.251893014 0.192456007 0
vt 0.251893014 0.345840007 0
vt 0.941695988 0.754752994 0
vt 0.670755029 0.754752994 0
vt 0.472023994 0.754752994 0
vt 0.202726007 0.754752994 0
vt 0.00412299996 0.754752994 0
vt 0.496843994 0.176065996 0
vt 0.266878009 0.176065996 0
vt 0.266878009 0.0109430002 0
vt 0.676792979 0.192456007 0
vt 0.429464012 0.345840007 0
vt 0.429464012 0.192456007 0
vt 0.676792979 0.345840007 0
vt 0.251803011 0.192456007 0
vt 0.251803011 0.345840007 0
vt 0.670755029 0.949680984 0
vt 0.941695988 0.949680984 0
vt 0.472023994 0.949680984 0
vt 0.202726007 0.949680984 0
vt 0.00412299996 0.949680984 0
vt 0.496843994 0.176061004 0
vt 0.266883999 0.176061004 0
vt 0.266883999 0.0109430002 0
vt 0.677407026 0.192456007 0
vt 0.429511011 0.345840007 0
vt 0.429511011 0.192456007 0
vt 0.677407026 0.345840007 0
vt 0.251691997 0.192456007 0
vt 0.251691997 0.345840007 0

# 34 vertex normals
vn -1 -4.87943426e-14 1.82883612e-14
vn -4.87929535e-14 1 -3.30909597e-20
vn 1 4.87943426e-14 -1.82883612e-14
vn 4.87929535e-14 -1 3.31968389e-20
vn -0.996212959 4.37151163e-14 -0.0869470835
vn 2.68210188e-14 0.993768215 -0.111466274
vn 0.9962129 -9.4976195e-15 -0.0869471431
vn 9.7754785e-15 -0.993768215 -0.111466184
vn -1.82925117e-14 4.64526473e-20 -1
vn 1.82925117e-14 -4.63997077e-20 1
vn 0.998105526 5.76087843e-14 0.0615248755
vn -1.51325943e-14 0.996780157 0.080182679
vn -0.998105586 6.38187691e-14 0.0615247935
vn 1.62150668e-14 -0.996318758 0.0857258961
vn -0.9962129 -3.92209086e-14 -0.0869472027
vn 1.97392575e-14 0.993768215 -0.11146643
vn 0.9962129 -9.49760425e-15 -0.0869471505
vn -1.76120122e-14 -0.993768215 -0.111466311
vn 0.998103201 -4.87232071e-15 0.0615628064
vn -1.40227372e-14 0.996776223 0.0802318752
vn -0.998103261 1.24587196e-14 0.0615627021
vn 5.86433571e-14 -0.996314228 0.0857784674
vn -0.9962129 -3.9221e-14 -0.086947158
vn 0.9962129 -9.49749838e-15 -0.0869472027
vn 0.998099327 -7.11113704e-14 0.0616257712
vn -1.37287333e-15 0.996769607 0.0803137869
vn -0.998099327 -4.49452072e-15 0.0616255589
vn 3.70679151e-15 -0.996306717 0.085865967
vn -0.9962129 -3.92209831e-14 -0.0869471654
vn 3.18974515e-14 0.993768215 -0.111466281
vn 0.998102129 1.00173276e-14 0.0615796372
vn -1.04242041e-14 0.996774435 0.080253914
vn -0.998102188 -2.49935536e-15 0.0615794994
vn 3.98530628e-14 -0.996312201 0.0858019888

# Mesh '' with 144 faces
usemtl $Material_0
f  1/1/1 2/2/1 3/3/1
f  3/3/1 2/2/1 4/4/1
f  5/5/2 6/6/2 1/1/2
f  1/1/2 6/6/2 2/2/2
f  7/7/3 8/8/3 5/9/3
f  5/9/3 8/8/3 6/10/3
f  3/3/4 4/4/4 7/7/4
f  7/7/4 4/4/4 8/8/4
f  9/11/5 4/4/5 2/2/5
f  4/4/5 9/11/5 10/12/5
f  6/6/6 11/13/6 2/2/6
f  2/2/6 11/13/6 9/11/6
f  6/10/7 8/8/7 12/14/7
f  6/10/7 12/14/7 11/15/7
f  4/4/8 10/12/8 8/8/8
f  8/8/8 10/12/8 12/14/8
f  10/16/9 11/17/9 12/18/9
f  11/17/9 10/16/9 9/19/9
f  3/20/10 13/21/10 1/22/10
f  13/21/10 3/20/10 14/23/10
f  3/20/10 7/24/10 15/25/10
f  3/20/10 15/25/10 14/23/10
f  7/24/10 5/26/10 16/27/10
f  7/24/10 16/27/10 15/25/10
f  13/21/10 5/26/10 1/22/10
f  5/26/10 13/21/10 16/27/10
f  14/28/11 17/29/11 13/30/11
f  17/29/11 14/28/11 18/31/11
f  15/32/12 18/31/12 14/28/12
f  18/31/12 15/32/12 19/33/12
f  16/34/13 20/35/13 15/32/13
f  15/32/13 20/35/13 19/33/13
f  13/36/14 17/37/14 16/34/14
f  16/34/14 17/37/14 20/35/14
f  17/38/10 19/39/10 20/40/10
f  19/39/10 17/38/10 18/41/10
f  21/42/1 22/2/1 23/43/1
f  23/43/1 22/2/1 24/4/1
f  25/44/2 26/6/2 21/42/2
f  21/42/2 26/6/2 22/2/2
f  27/45/3 28/8/3 25/46/3
f  25/46/3 28/8/3 26/10/3
f  23/43/4 24/4/4 27/45/4
f  27/45/4 24/4/4 28/8/4
f  24/4/15 22/2/15 29/11/15
f  24/4/15 29/11/15 30/12/15
f  26/6/16 31/13/16 22/2/16
f  22/2/16 31/13/16 29/11/16
f  32/14/17 26/10/17 28/8/17
f  26/10/17 32/14/17 31/15/17
f  24/4/18 30/12/18 28/8/18
f  28/8/18 30/12/18 32/14/18
f  30/16/9 31/17/9 32/18/9
f  31/17/9 30/16/9 29/19/9
f  23/20/10 33/47/10 21/22/10
f  33/47/10 23/20/10 34/48/10
f  23/20/10 27/24/10 35/25/10
f  23/20/10 35/25/10 34/48/10
f  27/24/10 25/26/10 36/27/10
f  27/24/10 36/27/10 35/25/10
f  25/26/10 21/22/10 33/47/10
f  25/26/10 33/47/10 36/27/10
f  34/49/19 37/50/19 33/51/19
f  37/50/19 34/49/19 38/52/19
f  35/36/20 38/52/20 34/49/20
f  38/52/20 35/36/20 39/37/20
f  36/53/21 40/54/21 35/30/21
f  35/30/21 40/54/21 39/29/21
f  33/51/22 37/50/22 36/53/22
f  36/53/22 37/50/22 40/54/22
f  37/38/10 39/39/10 40/40/10
f  39/39/10 37/38/10 38/41/10
f  41/8/1 42/55/1 43/56/1
f  42/55/1 41/8/1 44/10/1
f  45/57/2 46/4/2 43/56/2
f  43/56/2 46/4/2 41/8/2
f  47/2/3 45/57/3 48/58/3
f  45/57/3 47/2/3 46/4/3
f  42/59/4 44/6/4 48/58/4
f  48/58/4 44/6/4 47/2/4
f  44/10/23 41/8/23 49/14/23
f  44/10/23 49/14/23 50/15/23
f  46/4/16 51/12/16 41/8/16
f  41/8/16 51/12/16 49/14/16
f  52/11/24 46/4/24 47/2/24
f  46/4/24 52/11/24 51/12/24
f  44/6/18 50/13/18 47/2/18
f  47/2/18 50/13/18 52/11/18
f  50/16/9 51/17/9 52/18/9
f  51/17/9 50/16/9 49/19/9
f  42/20/10 53/60/10 43/22/10
f  53/60/10 42/20/10 54/61/10
f  42/20/10 48/24/10 55/62/10
f  42/20/10 55/62/10 54/61/10
f  48/24/10 45/26/10 56/27/10
f  48/24/10 56/27/10 55/62/10
f  43/22/10 56/27/10 45/26/10
f  56/27/10 43/22/10 53/60/10
f  54/63/25 57/64/25 53/65/25
f  57/64/25 54/63/25 58/66/25
f  55/36/26 58/66/26 54/63/26
f  58/66/26 55/36/26 59/37/26
f  56/67/27 60/68/27 55/30/27
f  55/30/27 60/68/27 59/29/27
f  53/65/28 57/64/28 56/67/28
f  56/67/28 57/64/28 60/68/28
f  57/38/10 59/39/10 60/40/10
f  59/39/10 57/38/10 58/41/10
f  61/69/1 62/8/1 63/70/1
f  63/70/1 62/8/1 64/10/1
f  65/71/2 66/4/2 61/69/2
f  61/69/2 66/4/2 62/8/2
f  67/72/3 68/2/3 65/71/3
f  65/71/3 68/2/3 66/4/3
f  63/73/4 64/6/4 67/72/4
f  67/72/4 64/6/4 68/2/4
f  69/14/29 64/10/29 62/8/29
f  64/10/29 69/14/29 70/15/29
f  66/4/30 71/12/30 62/8/30
f  62/8/30 71/12/30 69/14/30
f  66/4/24 68/2/24 72/11/24
f  66/4/24 72/11/24 71/12/24
f  64/6/8 70/13/8 68/2/8
f  68/2/8 70/13/8 72/11/8
f  70/16/9 71/17/9 72/18/9
f  71/17/9 70/16/9 69/19/9
f  63/20/10 73/74/10 61/22/10
f  73/74/10 63/20/10 74/75/10
f  63/20/10 67/24/10 75/76/10
f  63/20/10 75/76/10 74/75/10
f  67/24/10 65/26/10 76/27/10
f  67/24/10 76/27/10 75/76/10
f  61/22/10 76/27/10 65/26/10
f  76/27/10 61/22/10 73/74/10
f  74/77/31 77/78/31 73/79/31
f  77/78/31 74/77/31 78/80/31
f  75/36/32 78/80/32 74/77/32
f  78/80/32 75/36/32 79/37/32
f  76/81/33 80/82/33 75/30/33
f  75/30/33 80/82/33 79/29/33
f  73/79/34 77/78/34 76/81/34
f  76/81/34 77/78/34 80/82/34
f  77/38/10 79/39/10 80/40/10
f  79/39/10 77/38/10 78/41/10

