# File produced by Open Asset Import Library (http://www.assimp.sf.net)
# (assimp v5.2.0)

mtllib shelf.mtl

# 412 vertex positions
v  3.60781908 9.73091793 2.02878404
v  3.60781908 9.73091793 1.96993554
v  3.60781908 8.89796162 2.02878404
v  3.60781908 8.89796162 1.96993554
v  7.46596193 9.73091793 2.02878404
v  7.46596193 9.73091793 1.96993554
v  7.46596193 8.89796162 2.02878404
v  7.46596193 8.89796162 1.96993554
v  3.60781908 9.73091793 1.40931284
v  3.60781908 9.73091793 1.35046411
v  3.60781908 8.89796162 1.40931284
v  3.60781908 8.89796162 1.35046411
v  7.46596193 9.73091793 1.40931296
v  7.46596241 9.73091793 1.35046422
v  7.46596193 8.89796162 1.40931296
v  7.46596241 8.89796162 1.35046422
v  3.60781908 9.73091793 0.768158078
v  3.60781908 9.73091793 0.709309161
v  3.60781908 8.89796162 0.768158078
v  3.60781908 8.89796162 0.709309161
v  7.46596193 9.73091793 0.768158078
v  7.46596193 9.73091793 0.709309161
v  7.46596193 8.89796162 0.768158078
v  7.46596193 8.89796162 0.709309161
v  7.44007826 8.89286804 1.43528259
v  7.44007778 8.91220379 1.40649152
v  7.48441553 8.89286804 1.43528247
v  7.48441553 8.91220379 1.40649152
v  7.44007778 9.72410583 1.99352133
v  7.44007778 9.74344063 1.96473038
v  7.48441505 9.72410583 1.99352133
v  7.48441505 9.74344063 1.96473038
v  7.44007826 9.72410583 0.77168715
v  7.44007826 9.74325657 0.800998092
v  7.48441553 9.72410583 0.77168721
v  7.48441553 9.74325657 0.800998151
v  7.44007826 8.88935375 1.31709325
v  7.44007826 8.90850544 1.34640419
v  7.48441505 8.88935375 1.31709325
v  7.48441505 8.90850544 1.34640419
v  7.44007826 8.88891697 0.125910163
v  7.44007778 8.90850449 0.0976752937
v  7.48441505 8.88891697 0.125910088
v  7.48441505 8.90850449 0.0976752266
v  7.44007778 9.72410583 0.705317736
v  7.44007778 9.74369335 0.677082896
v  7.48441505 9.72410583 0.705317676
v  7.48441505 9.74369335 0.677082837
v  7.48461819 9.73414707 2.59395027
v  7.48461819 9.73414707 2.56370473
v  7.43917465 9.73414707 2.59395027
v  7.43917465 9.73414707 2.56370473
v  7.48461866 8.90708256 2.59395003
v  7.48461866 8.90708256 2.56370473
v  7.43917465 8.90708256 2.59395003
v  7.43917465 8.90708256 2.56370473
v  7.49043751 8.91110229 0.000316435966
v  7.49043751 8.8800478 0.000317936268
v  7.43531275 8.91110229 0.000311512471
v  7.43531275 8.8800478 0.000313012744
v  7.49020433 8.91122818 2.61322737
v  7.49020433 8.88017464 2.6132288
v  7.4350791 8.91122818 2.6132226
v  7.4350791 8.88017464 2.61322403
v  7.49043751 9.75245094 0.000316472375
v  7.49043751 9.72139645 0.000317973434
v  7.43531227 9.75245094 0.000311548822
v  7.43531227 9.72139645 0.000313049852
v  7.49020433 9.75257683 2.61322737
v  7.49020433 9.72152328 2.61322904
v  7.43507862 9.75257683 2.6132226
v  7.43507862 9.72152328 2.61322403
v  5.52333403 8.89286804 1.43528259
v  5.52333403 8.91220379 1.40649152
v  5.5676713 8.89286804 1.43528247
v  5.5676713 8.91220379 1.40649152
v  5.52333403 9.72410583 1.99352133
v  5.52333355 9.74344063 1.96473038
v  5.5676713 9.72410583 1.99352133
v  5.5676713 9.74344063 1.96473038
v  5.5233345 9.72410583 0.77168715
v  5.5233345 9.74325657 0.800998092
v  5.56767178 9.72410583 0.77168721
v  5.5676713 9.74325657 0.800998151
v  5.52333403 8.88935375 1.31709325
v  5.52333403 8.90850544 1.34640419
v  5.5676713 8.88935375 1.31709325
v  5.5676713 8.90850544 1.34640419
v  5.52333403 8.88891697 0.125910163
v  5.52333403 8.90850449 0.0976752937
v  5.5676713 8.88891697 0.125910088
v  5.5676713 8.90850449 0.0976752266
v  5.52333403 9.72410583 0.705317736
v  5.52333403 9.74369335 0.677082896
v  5.5676713 9.72410583 0.705317676
v  5.5676713 9.74369335 0.677082837
v  5.56787443 9.73414707 2.59395027
v  5.56787443 9.73414707 2.56370473
v  5.52243042 9.73414707 2.59395027
v  5.52243042 9.73414707 2.56370473
v  5.56787443 8.90708256 2.59395003
v  5.56787443 8.90708256 2.56370473
v  5.5224309 8.90708256 2.59395003
v  5.5224309 8.90708256 2.56370473
v  5.57369375 8.91110229 0.000316435966
v  5.57369375 8.8800478 0.000317936268
v  5.51856852 8.91110229 0.000311512471
v  5.51856852 8.8800478 0.000313012744
v  5.57346058 8.91122818 2.61322737
v  5.57346058 8.88017464 2.6132288
v  5.51833534 8.91122818 2.6132226
v  5.51833534 8.88017464 2.61322403
v  5.57369375 9.75245094 0.000316472375
v  5.57369375 9.72139645 0.000317973434
v  5.51856804 9.75245094 0.000311548822
v  5.51856804 9.72139645 0.000313049852
v  5.57346058 9.75257683 2.61322737
v  5.57346058 9.72152328 2.61322904
v  5.51833487 9.75257683 2.6132226
v  5.51833487 9.72152328 2.61322403
v  3.57801223 8.89286804 1.43528259
v  3.57801223 8.91220379 1.40649152
v  3.6223495 8.89286804 1.43528247
v  3.6223495 8.91220379 1.40649152
v  3.57801175 9.72410583 1.99352133
v  3.57801175 9.74344063 1.96473038
v  3.62234926 9.72410583 1.99352133
v  3.62234902 9.74344063 1.96473038
v  3.57801247 9.72410583 0.77168715
v  3.57801247 9.74325657 0.800998092
v  3.6223495 9.72410583 0.77168721
v  3.6223495 9.74325657 0.800998151
v  3.57801223 8.88935375 1.31709325
v  3.57801223 8.90850544 1.34640419
v  3.62234926 8.88935375 1.31709325
v  3.62234926 8.90850544 1.34640419
v  3.57801223 8.88891697 0.125910163
v  3.57801199 8.90850449 0.0976752937
v  3.62234926 8.88891697 0.125910088
v  3.62234926 8.90850449 0.0976752266
v  3.57801199 9.72410583 0.705317736
v  3.57801199 9.74369335 0.677082896
v  3.62234926 9.72410583 0.705317676
v  3.62234902 9.74369335 0.677082837
v  3.62255239 9.73414707 2.59395027
v  3.62255239 9.73414707 2.56370473
v  3.57710862 9.73414707 2.59395027
v  3.57710862 9.73414707 2.56370473
v  3.62255263 8.90708256 2.59395003
v  3.62255263 8.90708256 2.56370473
v  3.57710886 8.90708256 2.59395003
v  3.57710886 8.90708256 2.56370473
v  3.62837195 8.91110229 0.000316435966
v  3.62837195 8.8800478 0.000317936268
v  3.57324672 8.91110229 0.000311512471
v  3.57324672 8.8800478 0.000313012744
v  3.62813854 8.91122818 2.61322737
v  3.62813854 8.88017464 2.6132288
v  3.57301331 8.91122818 2.6132226
v  3.57301331 8.88017464 2.61322403
v  3.62837172 9.75245094 0.000316472375
v  3.62837172 9.72139645 0.000317973434
v  3.57324624 9.75245094 0.000311548822
v  3.57324624 9.72139645 0.000313049852
v  3.6281383 9.75257683 2.61322737
v  3.6281383 9.72152328 2.61322904
v  3.57301283 9.75257683 2.6132226
v  3.57301283 9.72152328 2.61322403
v  3.6078198 9.70336914 2.42132354
v  3.6078198 9.75959969 2.42132354
v  3.6078198 9.70336914 2.3624742
v  3.6078198 9.75959969 2.3624742
v  7.4659605 9.70337009 2.42132354
v  7.4659605 9.75960064 2.42132354
v  7.4659605 9.70336914 2.3624742
v  7.4659605 9.75960064 2.3624742
v  3.74586105 9.09462643 0.76452601
v  4.52569485 9.09320927 0.764525831
v  3.74586105 9.09462643 0.968391836
v  4.52569485 9.09320831 0.968392134
v  3.7467351 9.57244873 0.764526069
v  4.52656269 9.57103252 0.764525771
v  4.52656269 9.57103157 0.968392134
v  3.74673486 9.57244968 0.968391955
v  4.6434598 9.09462643 0.764526069
v  5.42329359 9.09320927 0.764525831
v  4.6434598 9.09462643 0.968391836
v  5.42329359 9.09320831 0.968392134
v  4.64433384 9.57244873 0.764526069
v  5.42416191 9.57103252 0.764525831
v  5.42416191 9.57103157 0.968392134
v  4.64433384 9.57244968 0.968391955
v  4.6434598 9.09462643 0.970714867
v  5.42329359 9.09320927 0.970714986
v  4.6434598 9.09462643 1.17458081
v  5.42329359 9.09320831 1.17458117
v  4.64433384 9.57244873 0.970714808
v  5.42416191 9.57103252 0.970714986
v  5.42416191 9.57103157 1.17458117
v  4.64433384 9.57244968 1.17458093
v  4.11493826 8.94247437 1.40794241
v  4.11635542 9.72230816 1.40794218
v  4.11493826 8.94247437 1.61180818
v  4.11635637 9.72230816 1.61180842
v  3.63711715 8.94334793 1.40794241
v  3.63853312 9.723176 1.40794218
v  3.63853312 9.723176 1.61180842
v  3.63711596 8.94334793 1.61180842
v  4.13019228 9.72318459 1.40536654
v  4.12877464 8.94335079 1.40536618
v  4.13019228 9.72318459 1.60923219
v  4.12877369 8.94335079 1.60923243
v  4.60659695 8.94248295 1.40536618
v  4.60801315 9.72231007 1.40536654
v  4.60659695 8.94248295 1.60923243
v  4.60801411 9.72231007 1.60923243
v  4.11493826 8.94247437 1.61300635
v  4.11635542 9.72230816 1.61300611
v  4.11493826 8.94247437 1.816872
v  4.11635637 9.72230816 1.81687236
v  3.63711715 8.94334793 1.61300635
v  3.63853312 9.723176 1.61300611
v  3.63853312 9.723176 1.81687236
v  3.63711596 8.94334793 1.81687236
v  5.45495272 9.57103157 1.41012847
v  4.67511892 9.57244873 1.41012812
v  5.45495272 9.57103157 1.61399412
v  4.67511892 9.57244968 1.61399436
v  5.45407867 9.09321022 1.41012847
v  4.67425108 9.09462643 1.41012812
v  4.67425108 9.09462643 1.61399436
v  5.45407867 9.09320927 1.61399436
v  5.50387859 9.49098396 1.6115551
v  4.73906183 9.6432972 1.81542146
v  5.50387859 9.49098396 1.8154211
v  4.7390604 9.64329624 1.61155546
v  5.41054726 9.02236652 1.6115551
v  4.64573622 9.17467499 1.61155546
v  4.64573622 9.17467499 1.81542146
v  5.41054726 9.02236462 1.81542146
v  6.36023092 9.57103157 1.41121316
v  5.58039713 9.57244873 1.41121304
v  6.36023092 9.57103157 1.61507916
v  5.58039713 9.57244968 1.6150794
v  6.35935688 9.09321022 1.41121316
v  5.57952929 9.09462547 1.41121304
v  5.57952929 9.09462643 1.6150794
v  6.35935688 9.09320927 1.61507916
v  6.36023092 9.57103157 1.6174022
v  5.58039713 9.57244873 1.6174022
v  6.36023092 9.57103157 1.82126808
v  5.58039713 9.57244968 1.82126844
v  6.35935688 9.09321022 1.6174022
v  5.57952929 9.09462547 1.6174022
v  5.57952929 9.09462643 1.82126844
v  6.35935688 9.09320927 1.82126808
v  6.36023092 9.57103157 2.0234952
v  5.58039713 9.57244873 2.0234952
v  6.36023092 9.57103157 2.2273612
v  5.58039713 9.57244968 2.22736144
v  6.35935688 9.09321022 2.0234952
v  5.57952929 9.09462547 2.0234952
v  5.57952929 9.09462643 2.22736144
v  6.35935688 9.09320927 2.2273612
v  6.90619802 8.95843601 0.754538
v  6.90619802 9.71909523 0.75453788
v  7.43123674 8.95843887 0.75453794
v  7.43123674 9.71909809 0.754537761
v  7.43123674 9.71909809 0.830603838
v  6.90619802 9.71909523 0.830604017
v  7.43123674 8.95843887 0.830604017
v  6.90619802 8.95843601 0.830604076
v  6.90619802 8.95843601 0.832036972
v  6.90619802 9.71909523 0.832036853
v  7.43123674 8.95843887 0.832036734
v  7.43123674 9.71909809 0.832036674
v  7.43123674 9.71909809 0.90810293
v  6.90619802 9.71909523 0.908103108
v  7.43123674 8.95843887 0.90810293
v  6.90619802 8.95843601 0.908103108
v  6.90618801 8.95843983 0.909313917
v  6.90618801 9.71909809 0.909313917
v  7.43122959 8.95844173 0.909313858
v  7.43122959 9.71910095 0.909313917
v  7.43122959 9.71910095 0.985379636
v  6.90618801 9.71909809 0.985379636
v  7.43122959 8.95844173 0.985379636
v  6.90618801 8.95843983 0.985379636
v  6.3666482 8.93499947 1.41252923
v  6.3666482 9.69565868 1.41252923
v  6.89168739 8.93500233 1.41252923
v  6.89168739 9.69566154 1.41252911
v  6.89168739 9.69566154 1.48859525
v  6.3666482 9.69565868 1.48859525
v  6.89168739 8.93500233 1.48859525
v  6.3666482 8.93499947 1.48859537
v  6.3666482 8.93499947 1.49002838
v  6.3666482 9.69565868 1.49002814
v  6.89168739 8.93500233 1.49002802
v  6.89168739 9.69566154 1.49002802
v  6.89168739 9.69566154 1.56609428
v  6.3666482 9.69565868 1.56609428
v  6.89168739 8.93500233 1.56609428
v  6.3666482 8.93499947 1.56609428
v  6.36663866 8.93500328 1.56730521
v  6.36663866 9.6956625 1.56730521
v  6.89168024 8.93500519 1.56730521
v  6.89168024 9.69566441 1.56730521
v  6.89168024 9.69566441 1.64337099
v  6.36663866 9.6956625 1.64337099
v  6.89168024 8.93500519 1.64337099
v  6.36663866 8.93500328 1.64337099
v  6.55987215 9.73377132 1.64430022
v  6.95216608 8.89688969 1.64430034
v  6.43432665 8.98354435 1.64430022
v  7.07771015 9.64711666 1.64430034
v  6.95216608 8.89688969 1.7203666
v  7.07771015 9.64711666 1.7203666
v  6.55987215 9.73377132 1.72036648
v  6.43432665 8.9835434 1.72036648
v  6.55987215 9.73377132 1.72310305
v  6.95216608 8.89688969 1.72310317
v  6.43432665 8.98354435 1.72310305
v  7.07771015 9.64711666 1.72310317
v  6.95216608 8.89688969 1.79916978
v  7.07771015 9.64711666 1.79916978
v  6.55987215 9.73377132 1.7991699
v  6.43432665 8.9835434 1.7991699
v  6.90403986 8.93499947 1.41252923
v  6.90403986 9.69565868 1.41252923
v  7.42907858 8.93500233 1.41252923
v  7.42907858 9.69566154 1.41252911
v  7.42907858 9.69566154 1.48859525
v  6.90403986 9.69565868 1.48859525
v  7.42907858 8.93500233 1.48859525
v  6.90403986 8.93499947 1.48859537
v  6.90403986 8.93499947 1.49002838
v  6.90403986 9.69565868 1.49002814
v  7.42907858 8.93500233 1.49002802
v  7.42907858 9.69566154 1.49002802
v  7.42907858 9.69566154 1.56609428
v  6.90403986 9.69565868 1.56609428
v  7.42907858 8.93500233 1.56609428
v  6.90403986 8.93499947 1.56609428
v  7.30064631 9.15690327 2.03833389
v  6.55509901 9.00603008 2.03833413
v  7.19650412 9.6715107 2.03833413
v  6.4509573 9.52063751 2.03833437
v  6.55509901 9.00603008 2.11439991
v  7.19650412 9.6715107 2.11439991
v  6.4509573 9.52063751 2.11440039
v  7.30064631 9.15690327 2.11440039
v  7.30064631 9.15690327 2.11583281
v  6.55509901 9.00603008 2.11583304
v  7.19650412 9.6715107 2.11583304
v  6.4509573 9.52063751 2.11583328
v  6.55509901 9.00603008 2.19189906
v  7.19650412 9.6715107 2.1918993
v  6.4509573 9.52063751 2.1918993
v  7.30064631 9.15690327 2.19189906
v  7.30063534 9.15690327 2.19311023
v  6.55508804 9.00602913 2.19311023
v  7.19649315 9.6715126 2.19311023
v  6.45094633 9.52063847 2.19311023
v  6.55508804 9.00602913 2.26917577
v  7.19649315 9.6715126 2.26917577
v  6.45094633 9.52063847 2.26917577
v  7.30063534 9.15690231 2.26917577
v  7.30064631 9.15690327 2.27187943
v  6.55509901 9.00603008 2.27187943
v  7.19650412 9.6715107 2.27187943
v  6.4509573 9.52063751 2.27187943
v  6.55509901 9.00603008 2.34794521
v  7.19650412 9.6715107 2.34794521
v  6.4509573 9.52063751 2.34794545
v  7.30064631 9.15690327 2.34794521
v  6.22473907 9.06945801 1.23907554
v  6.22473907 9.06945801 0.766896725
v  6.22179699 9.61347008 1.23907554
v  6.22179699 9.61347008 0.766896725
v  5.57892609 9.06789303 0.766896725
v  5.57598543 9.6119051 0.766896725
v  5.59021139 9.61194038 1.23907554
v  5.5789299 9.06789303 1.23907554
v  5.57599163 9.6119051 1.23907554
v  6.89177036 9.61347008 1.2390753
v  6.89470959 9.06945801 1.2390753
v  6.89177036 9.61347008 0.766896963
v  6.89470959 9.06945801 0.766896963
v  6.24890184 9.06789303 0.766897023
v  6.24595737 9.6119051 0.766897023
v  6.26018715 9.61194038 1.23907554
v  6.24890184 9.06789303 1.23907554
v  6.24595976 9.6119051 1.23907554
v  4.40930223 9.06945801 2.50494123
v  4.40930223 9.06945801 2.03276229
v  4.40636015 9.61347008 2.50494123
v  4.40636015 9.61347008 2.03276229
v  3.76348925 9.06789303 2.03276229
v  3.76054859 9.6119051 2.03276229
v  3.77477455 9.61194038 2.50494123
v  3.76349282 9.06789303 2.50494123
v  3.76055455 9.6119051 2.50494123
v  5.12415314 8.94200706 2.50494123
v  5.12415314 8.94200706 2.03276229
v  5.35020399 9.43683815 2.50494123
v  5.35020399 9.43683815 2.03276229
v  4.763587 9.70694065 2.03276229
v  4.53753471 9.21210957 2.03276229
v  4.77650928 9.70099068 2.50494123
v  4.53753805 9.21210766 2.50494123
v  4.76359272 9.70693779 2.50494123

# 70 UV coordinates
vt 0.0162429996 0.522332013 0
vt 0.756344974 0.522332013 0
vt 0.0162439998 0.715840995 0
vt 0.756345987 0.715840995 0
vt 0.749637008 0.514492989 0
vt 0.00952600036 0.0610000007 0
vt 0.749635994 0.0609989986 0
vt 0.00952600036 0.514494002 0
vt 0.969476998 0.480354995 0
vt 0.969577014 0.938727975 0
vt 0.77146399 0.938319027 0
vt 0.771395981 0.480706006 0
vt 0.00719199982 0.0394230001 0
vt 0.751630008 0.0394230001 0
vt 0.00719199982 0.498971999 0
vt 0.751630008 0.498971999 0
vt 0.779206991 0.499081999 0
vt 0.779286027 0.0407069996 0
vt 0.977370977 0.0410600007 0
vt 0.977311015 0.498670012 0
vt 0.0162429996 0.718110979 0
vt 0.75634402 0.718110979 0
vt 0.0162429996 0.911620021 0
vt 0.75634402 0.911620021 0
vt 0.238675997 0.206126004 0
vt 0.942551017 0.206126004 0
vt 0.238675997 0.691972971 0
vt 0.942551017 0.691972971 0
vt 0.240673006 0.691972971 0
vt 0.240673006 0.206126004 0
vt 0.944549024 0.691972971 0
vt 0.944549024 0.206126004 0
vt 1.01493597 0.206126004 0
vt 1.01493597 0.691972971 0
vt 0.944549024 0.76236099 0
vt 0.240673006 0.762359977 0
vt 0.170286 0.691972971 0
vt 0.170286 0.206126004 0
vt 0.229772002 0.102614999 0
vt 0.93364799 0.102614999 0
vt 0.229772002 0.173002005 0
vt 0.93364799 0.173002005 0
vt 0.0270380005 0.692023993 0
vt 0.0270380005 0.424800009 0
vt 0.486957014 0.692023993 0
vt 0.486954004 0.424800009 0
vt 0.506995976 0.401663005 0
vt 0.506995976 0.0361680016 0
vt 0.966910005 0.401663005 0
vt 0.966910005 0.0361680016 0
vt 0.0295439996 0.415223986 0
vt 0.0295439996 0.0434300005 0
vt 0.489461005 0.415224999 0
vt 0.489461005 0.0353799984 0
vt 0.0295439996 0.0353799984 0
vt 0.0295439996 0.0353769995 0
vt 0.409054011 0.971741974 0
vt 0.0374220014 0.971548021 0
vt 0.407335013 0.698760986 0
vt 0.0392110012 0.698716998 0
vt 0.505545974 0.676851988 0
vt 0.505545974 0.409621 0
vt 0.965462029 0.676851988 0
vt 0.965458989 0.409621 0
vt 0.570343018 0.962377012 0
vt 0.570343971 0.705030978 0
vt 0.914572001 0.962378025 0
vt 0.922325015 0.705030978 0
vt 0.0295439996 0.035379 0
vt 0.0295439996 0.0353760011 0

# 228 vertex normals
vn -1 1.09634524e-13 6.54878107e-09
vn 1.09634524e-13 1 1.33849944e-08
vn -1.09634524e-13 -1 -1.33849944e-08
vn 1 -1.09579013e-13 -6.54878107e-09
vn -6.54878063e-09 1.33849944e-08 -1
vn 6.54878107e-09 -1.33849944e-08 1
vn -1 1.0896839e-13 -2.93497919e-08
vn 1.08801856e-13 1 5.17379295e-09
vn -1.08801856e-13 -1 -5.17379295e-09
vn 1 -1.0896839e-13 2.93497919e-08
vn 2.93497919e-08 5.17379339e-09 -1
vn -2.93497919e-08 -5.17379295e-09 1
vn -1 1.08801856e-13 0
vn 1.09134923e-13 1 -2.77555756e-16
vn -1.09023901e-13 -1 4.4408921e-16
vn 1 -1.09023901e-13 2.22044605e-16
vn 1.94289029e-16 -4.4408921e-16 -1
vn -1.66533454e-16 3.88578059e-16 1
vn 3.19534564e-07 -0.830164492 -0.557518542
vn -1 -1.38404198e-06 1.48774961e-06
vn 1 1.38404198e-06 -1.48774961e-06
vn -3.19534564e-07 0.830164492 0.557518542
vn -2.00670593e-06 0.557518542 -0.830164492
vn 2.00670593e-06 -0.557518542 0.830164492
vn 2.1878364e-07 0.837150097 -0.546973228
vn -1 -1.00779221e-06 -1.94242966e-06
vn 1 1.00779221e-06 1.94242966e-06
vn -2.1878364e-07 -0.837150097 0.546973228
vn -2.17734055e-06 0.546973228 0.837150097
vn 2.17734055e-06 -0.546973228 -0.837150097
vn 7.1071149e-08 -0.82163924 -0.570007861
vn -1 -1.24303381e-06 1.66708969e-06
vn 1 1.24303381e-06 -1.66708969e-06
vn -7.1071149e-08 0.82163924 0.570007861
vn -2.07828543e-06 0.570007861 -0.82163924
vn 2.07828543e-06 -0.570007861 0.82163924
vn -2.83513799e-07 1 8.53039168e-08
vn 1 2.83513828e-07 -2.85553995e-07
vn -1 -2.83513828e-07 2.85553995e-07
vn 2.83513799e-07 -1 -8.53039168e-08
vn -2.85554023e-07 8.53038316e-08 -1
vn 2.85554023e-07 -8.53038316e-08 1
vn 8.93152246e-05 -4.8312224e-05 -1
vn 1 2.88004713e-07 8.93152101e-05
vn -1 -2.88004713e-07 -8.93152101e-05
vn -8.93152246e-05 4.8312224e-05 1
vn 2.83689701e-07 -1 4.83122494e-05
vn -2.83689701e-07 1 -4.83122494e-05
vn 8.9315683e-05 -4.83359872e-05 -1
vn 1 9.48369802e-07 8.93156321e-05
vn -1 -9.48369802e-07 -8.93156321e-05
vn -8.9315683e-05 4.83359872e-05 1
vn 9.44052658e-07 -1 4.83360709e-05
vn -9.44052658e-07 1 -4.83360709e-05
vn -1 -2.14514159e-07 -2.58095429e-08
vn -2.58095927e-08 2.3025099e-07 1
vn 2.58095927e-08 -2.3025099e-07 -1
vn 1 2.14514159e-07 2.58095429e-08
vn -2.14514159e-07 1 -2.30251004e-07
vn 2.14514159e-07 -1 2.30251004e-07
vn -0.00181725551 -0.999998391 1.14546879e-11
vn -0.00181882235 -0.999998391 -5.9935719e-06
vn -3.05728889e-07 5.92313476e-10 -1
vn -3.05731305e-07 5.92313532e-10 -1
vn 0.999998331 -0.00181624084 -1.08857749e-08
vn 0.999998331 -0.00181624247 -6.90328417e-09
vn -1.52865667e-07 2.8073599e-10 1
vn -3.82841762e-07 -3.7352882e-07 1
vn -0.999998331 0.00182921661 -8.02224065e-09
vn -0.999998331 0.00182921998 2.36477504e-14
vn 0.00181581767 0.999998391 3.80083179e-06
vn 0.00181795785 0.999998391 -4.38555026e-06
vn -0.00181725563 -0.999998391 1.14547052e-11
vn -0.00181882246 -0.999998391 -5.9935719e-06
vn 0.999998331 -0.00181639672 -1.08867981e-08
vn 0.999998331 -0.00181639846 -6.90377622e-09
vn 1.52864473e-07 -2.80735962e-10 -1
vn 1.52865667e-07 -2.80736018e-10 -1
vn 0.999998331 -0.0018163966 -1.08867608e-08
vn 0.999998331 -0.00181639823 -6.90381485e-09
vn -3.05731305e-07 5.13544818e-10 1
vn -4.59047101e-07 -2.48673416e-07 1
vn -0.999998331 0.00182921637 -8.28959301e-09
vn -0.999998331 0.00182921987 -1.40998324e-14
vn 0.00181795773 0.999998391 3.80083156e-06
vn 0.00181577948 0.999998391 -4.5317679e-06
vn 0.999998331 -0.00181725563 -3.21645922e-14
vn 0.999998331 -0.00181878416 -5.84741701e-06
vn -5.59258972e-10 -3.0569629e-07 -1
vn -5.55322399e-10 -3.0569629e-07 -1
vn 0.00181636529 0.999998391 -1.06051203e-08
vn 0.00181636983 0.999998391 -1.13286602e-11
vn -8.60422844e-15 -1.02805542e-11 1
vn 4.98408212e-07 -3.06648104e-07 1
vn -0.00182928017 -0.999998331 -1.07359925e-08
vn -0.00182928471 -0.999998331 -2.57843868e-11
vn -0.999998331 0.00181589427 -7.01660952e-14
vn -0.999998331 0.0018174228 -5.84742384e-06
vn -0.999998331 0.00181740848 -3.60822483e-14
vn -0.999998331 0.00181893713 -5.84741701e-06
vn 8.32983627e-10 4.58628335e-07 -1
vn 8.38909497e-10 4.58628335e-07 -1
vn -0.00181636505 -0.999998391 -1.05824638e-08
vn -0.00181636959 -0.999998391 1.13286247e-11
vn -4.98408326e-07 3.06627527e-07 1
vn 0.00182928063 0.999998331 -1.06844222e-08
vn 0.00182928517 0.999998331 2.57843191e-11
vn 0.999998331 -0.00181581778 -1.97194691e-15
vn 0.999998331 -0.00181734632 -5.84742702e-06
vn 7.47612262e-07 -4.59967026e-07 1
vn 0.0018173703 0.999998391 -1.14709353e-11
vn 0.00181893713 0.999998391 -5.9935951e-06
vn 4.58596986e-07 -8.04561529e-10 -1
vn 4.58593348e-07 -8.04561529e-10 -1
vn -0.999998331 0.00181636494 -1.08866507e-08
vn -0.999998331 0.00181636948 -1.22124533e-14
vn 3.06636508e-07 4.98363647e-07 1
vn 0.999998331 -0.0018291712 -1.09633405e-08
vn 0.999998331 -0.00182917598 -1.69982301e-14
vn -0.00181577948 -0.999998391 1.12446493e-11
vn -0.00181734632 -0.999998391 -5.9935719e-06
vn 0.195315182 0.980740547 -3.84204335e-11
vn 0.195313379 0.980740905 -7.0202891e-06
vn -4.49765764e-07 8.95917864e-08 -1
vn -4.49759739e-07 8.95917864e-08 -1
vn -0.980741024 0.195312575 4.5641973e-06
vn -0.980741382 0.195310652 -2.84550161e-13
vn 5.95944471e-07 6.44464876e-07 1
vn 0.980738342 -0.19532609 -1.77033291e-06
vn 0.980738163 -0.19532682 1.22656746e-12
vn -0.195312917 -0.980740964 -3.84977952e-11
vn -0.195310637 -0.980741441 -8.88896648e-06
vn 0.00181733212 0.999998391 -1.14654397e-11
vn 0.00181886076 0.999998391 -5.84743566e-06
vn -0.999998331 0.00181640463 -1.0621326e-08
vn -0.999998331 0.00181640615 -6.90384683e-09
vn 3.05728918e-07 -5.92313587e-10 1
vn 3.05731305e-07 -5.92313643e-10 1
vn 0.999998331 -0.00182909181 -8.28901303e-09
vn 0.999998331 -0.0018290953 1.45808929e-14
vn -0.00181801512 -0.999998391 3.80085453e-06
vn -0.00181583676 -0.999998391 -4.53174516e-06
vn 0.00181737042 0.999998391 -1.14709353e-11
vn 0.00181893725 0.999998391 -5.9935951e-06
vn 8.52581352e-15 1.02804579e-11 -1
vn -0.999998331 0.0018164044 -1.08868603e-08
vn -0.999998331 0.00181640603 -6.90377089e-09
vn 4.58593377e-07 -8.83330131e-10 1
vn 4.58596958e-07 -8.2512247e-10 1
vn 0.999998331 -0.00182909169 -8.15528001e-09
vn 0.999998331 -0.00182909518 5.21014438e-14
vn -0.00181805331 -0.999998391 3.80085453e-06
vn -0.00181589404 -0.999998391 -4.45863634e-06
vn -1.13554968e-07 -7.81357983e-08 -1
vn -2.27039578e-07 -1.56849978e-07 -1
vn 3.4057669e-07 2.35097829e-07 1
vn 1.13554968e-07 7.81357983e-08 1
vn 4.65441735e-06 -1 -2.17897519e-10
vn 1 -1.113157e-10 -3.62494821e-12
vn -4.54100791e-06 1 8.00976785e-11
vn -1 1.11315748e-10 3.62494821e-12
vn -4.54090184e-07 -2.35109638e-07 -1
vn -3.4061128e-07 -1.56861091e-07 -1
vn 3.40558358e-07 -7.66026756e-11 1
vn -1.78504954e-11 1.12049467e-10 -1
vn 1.78504954e-11 -1.12049467e-10 1
vn -4.59761077e-06 1 2.66150352e-10
vn 2.27039578e-07 1.56849978e-07 1
vn -4.65441735e-06 1 2.17897519e-10
vn -6.81140818e-07 -3.13369299e-07 -1
vn -2.2704485e-07 8.84182727e-11 -1
vn 2.23929618e-07 -3.75478209e-08 -1
vn -2.23929618e-07 3.75478209e-08 1
vn -0.165043041 -0.986286342 -6.98254579e-11
vn 0.986285746 -0.16504693 8.86359805e-11
vn 0.165043309 0.986286283 6.54995502e-11
vn -0.986285448 0.16504854 -2.10635398e-11
vn 2.23971e-07 -3.73062967e-08 1
vn -3.97296446e-07 3.83102446e-07 -1
vn 7.94580728e-07 -7.65627249e-07 1
vn -7.94539346e-07 7.65868776e-07 1
vn -0.980131149 -0.198350549 4.46145516e-11
vn 0.198345512 -0.980132163 2.30690841e-10
vn 0.980131149 0.198350608 1.51806328e-11
vn -0.198345274 0.980132222 -2.61701383e-10
vn 9.0054634e-08 -4.45015644e-07 1
vn -0.980131269 -0.198349819 1.07540409e-11
vn 0.198345482 -0.980132163 2.05377854e-10
vn 0.980131269 0.198349968 -1.24943643e-12
vn -0.198345721 0.980132103 -1.74367187e-10
vn 3.97296446e-07 -3.83102446e-07 1
vn 0.198345497 -0.980132163 2.18034368e-10
vn 0.980131149 0.198350593 5.80235859e-12
vn -0.198345304 0.980132163 -5.34997602e-11
vn 0.999985397 0.00540771941 -8.00330735e-09
vn 1.20898189e-08 -6.55389631e-10 -1
vn -1.2089818e-08 6.55389631e-10 1
vn -0.0024248471 0.99999702 2.81759895e-08
vn 0.00242281775 -0.999997079 -6.27827262e-07
vn 0.00242326478 -0.99999702 -1.9235749e-08
vn -0.999985397 -0.00540095055 1.29671444e-05
vn -0.999985337 -0.00540545676 7.76468096e-06
vn -0.00242226757 0.99999702 -2.49268273e-09
vn -0.002422299 0.99999702 -4.40764225e-08
vn 0.999985397 0.00540301017 -4.2425099e-09
vn -1.19997722e-07 -1.62994673e-10 -1
vn 3.84422293e-07 2.89101498e-09 0.99999994
vn 3.34876859e-07 -6.57852883e-09 1
vn -0.00242358865 0.999997079 1.03839923e-08
vn 0.00242328481 -0.999997079 3.00016012e-09
vn -0.999985337 -0.00540771754 5.15564534e-06
vn -0.999985337 -0.00541220699 -1.19312213e-08
vn -0.00242255628 0.999997079 2.07875384e-10
vn -0.00242257072 0.999997079 -1.70032362e-08
vn 0.999985337 0.00540782511 3.10805461e-08
vn 0.999985397 0.0054078307 -2.75721801e-09
vn -0.00242483825 0.99999702 3.10640687e-08
vn -0.999985397 -0.00540102925 1.28803649e-05
vn -0.999985397 -0.00540541066 7.80096707e-06
vn 0.909584045 -0.415519983 -5.18713534e-07
vn 0.909583867 -0.41552037 -5.11589748e-09
vn -0.898005068 0.438953876 0.0301071573
vn -0.418235064 -0.908338845 -1.1454938e-06
vn -0.418234527 -0.908339083 -2.95938094e-07
vn -0.909581125 0.41552639 8.63338573e-06
vn -0.909583032 0.415522277 1.38517707e-05
vn 0.41823554 0.908338606 -1.23633193e-08
vn 0.418235213 0.908338785 -4.94220046e-07

# Mesh '' with 12 faces
usemtl $Material_0
f  1//1 2//1 3//1
f  3//1 2//1 4//1
f  2//2 1//2 5//2
f  2//2 5//2 6//2
f  3//3 4//3 7//3
f  7//3 4//3 8//3
f  7//4 8//4 5//4
f  5//4 8//4 6//4
f  4//5 2//5 8//5
f  8//5 2//5 6//5
f  1//6 3//6 7//6
f  1//6 7//6 5//6

# Mesh '' with 12 faces
usemtl $Material_1
f  9//7 10//7 11//7
f  11//7 10//7 12//7
f  10//8 9//8 13//8
f  10//8 13//8 14//8
f  11//9 12//9 15//9
f  15//9 12//9 16//9
f  15//10 16//10 13//10
f  13//10 16//10 14//10
f  12//11 10//11 16//11
f  16//11 10//11 14//11
f  9//12 11//12 15//12
f  9//12 15//12 13//12

# Mesh '' with 12 faces
usemtl $Material_2
f  17//13 18//13 19//13
f  19//13 18//13 20//13
f  18//14 17//14 21//14
f  18//14 21//14 22//14
f  19//15 20//15 23//15
f  23//15 20//15 24//15
f  23//16 24//16 21//16
f  21//16 24//16 22//16
f  20//17 18//17 24//17
f  24//17 18//17 22//17
f  17//18 19//18 23//18
f  17//18 23//18 21//18

# Mesh '' with 12 faces
usemtl $Material_3
f  25//19 26//19 27//19
f  27//19 26//19 28//19
f  26//20 25//20 29//20
f  26//20 29//20 30//20
f  27//21 28//21 31//21
f  31//21 28//21 32//21
f  31//22 32//22 29//22
f  29//22 32//22 30//22
f  28//23 26//23 32//23
f  32//23 26//23 30//23
f  25//24 27//24 31//24
f  25//24 31//24 29//24

# Mesh '' with 12 faces
usemtl $Material_4
f  33//25 34//25 35//25
f  35//25 34//25 36//25
f  34//26 33//26 37//26
f  34//26 37//26 38//26
f  35//27 36//27 39//27
f  39//27 36//27 40//27
f  39//28 40//28 37//28
f  37//28 40//28 38//28
f  36//29 34//29 40//29
f  40//29 34//29 38//29
f  33//30 35//30 39//30
f  33//30 39//30 37//30

# Mesh '' with 12 faces
usemtl $Material_5
f  41//31 42//31 43//31
f  43//31 42//31 44//31
f  42//32 41//32 45//32
f  42//32 45//32 46//32
f  43//33 44//33 47//33
f  47//33 44//33 48//33
f  47//34 48//34 45//34
f  45//34 48//34 46//34
f  44//35 42//35 48//35
f  48//35 42//35 46//35
f  41//36 43//36 47//36
f  41//36 47//36 45//36

# Mesh '' with 12 faces
usemtl $Material_6
f  49//37 50//37 51//37
f  51//37 50//37 52//37
f  50//38 49//38 53//38
f  50//38 53//38 54//38
f  51//39 52//39 55//39
f  55//39 52//39 56//39
f  55//40 56//40 53//40
f  53//40 56//40 54//40
f  52//41 50//41 56//41
f  56//41 50//41 54//41
f  49//42 51//42 55//42
f  49//42 55//42 53//42

# Mesh '' with 12 faces
usemtl $Material_7
f  57//43 58//43 59//43
f  59//43 58//43 60//43
f  58//44 57//44 61//44
f  58//44 61//44 62//44
f  59//45 60//45 63//45
f  63//45 60//45 64//45
f  63//46 64//46 61//46
f  61//46 64//46 62//46
f  60//47 58//47 64//47
f  64//47 58//47 62//47
f  57//48 59//48 63//48
f  57//48 63//48 61//48

# Mesh '' with 12 faces
usemtl $Material_8
f  65//49 66//49 67//49
f  67//49 66//49 68//49
f  66//50 65//50 69//50
f  66//50 69//50 70//50
f  67//51 68//51 71//51
f  71//51 68//51 72//51
f  71//52 72//52 69//52
f  69//52 72//52 70//52
f  68//53 66//53 72//53
f  72//53 66//53 70//53
f  65//54 67//54 71//54
f  65//54 71//54 69//54

# Mesh '' with 12 faces
usemtl $Material_9
f  73//19 74//19 75//19
f  75//19 74//19 76//19
f  74//20 73//20 77//20
f  74//20 77//20 78//20
f  75//21 76//21 79//21
f  79//21 76//21 80//21
f  79//22 80//22 77//22
f  77//22 80//22 78//22
f  76//23 74//23 80//23
f  80//23 74//23 78//23
f  73//24 75//24 79//24
f  73//24 79//24 77//24

# Mesh '' with 12 faces
usemtl $Material_10
f  81//25 82//25 83//25
f  83//25 82//25 84//25
f  82//26 81//26 85//26
f  82//26 85//26 86//26
f  83//27 84//27 87//27
f  87//27 84//27 88//27
f  87//28 88//28 85//28
f  85//28 88//28 86//28
f  84//29 82//29 88//29
f  88//29 82//29 86//29
f  81//30 83//30 87//30
f  81//30 87//30 85//30

# Mesh '' with 12 faces
usemtl $Material_11
f  89//31 90//31 91//31
f  91//31 90//31 92//31
f  90//32 89//32 93//32
f  90//32 93//32 94//32
f  91//33 92//33 95//33
f  95//33 92//33 96//33
f  95//34 96//34 93//34
f  93//34 96//34 94//34
f  92//35 90//35 96//35
f  96//35 90//35 94//35
f  89//36 91//36 95//36
f  89//36 95//36 93//36

# Mesh '' with 12 faces
usemtl $Material_12
f  97//37 98//37 99//37
f  99//37 98//37 100//37
f  98//38 97//38 101//38
f  98//38 101//38 102//38
f  99//39 100//39 103//39
f  103//39 100//39 104//39
f  103//40 104//40 101//40
f  101//40 104//40 102//40
f  100//41 98//41 104//41
f  104//41 98//41 102//41
f  97//42 99//42 103//42
f  97//42 103//42 101//42

# Mesh '' with 12 faces
usemtl $Material_13
f  105//43 106//43 107//43
f  107//43 106//43 108//43
f  106//44 105//44 109//44
f  106//44 109//44 110//44
f  107//45 108//45 111//45
f  111//45 108//45 112//45
f  111//46 112//46 109//46
f  109//46 112//46 110//46
f  108//47 106//47 112//47
f  112//47 106//47 110//47
f  105//48 107//48 111//48
f  105//48 111//48 109//48

# Mesh '' with 12 faces
usemtl $Material_14
f  113//49 114//49 115//49
f  115//49 114//49 116//49
f  114//50 113//50 117//50
f  114//50 117//50 118//50
f  115//51 116//51 119//51
f  119//51 116//51 120//51
f  119//52 120//52 117//52
f  117//52 120//52 118//52
f  116//53 114//53 120//53
f  120//53 114//53 118//53
f  113//54 115//54 119//54
f  113//54 119//54 117//54

# Mesh '' with 12 faces
usemtl $Material_15
f  121//19 122//19 123//19
f  123//19 122//19 124//19
f  122//20 121//20 125//20
f  122//20 125//20 126//20
f  123//21 124//21 127//21
f  127//21 124//21 128//21
f  127//22 128//22 125//22
f  125//22 128//22 126//22
f  124//23 122//23 128//23
f  128//23 122//23 126//23
f  121//24 123//24 127//24
f  121//24 127//24 125//24

# Mesh '' with 12 faces
usemtl $Material_16
f  129//25 130//25 131//25
f  131//25 130//25 132//25
f  130//26 129//26 133//26
f  130//26 133//26 134//26
f  131//27 132//27 135//27
f  135//27 132//27 136//27
f  135//28 136//28 133//28
f  133//28 136//28 134//28
f  132//29 130//29 136//29
f  136//29 130//29 134//29
f  129//30 131//30 135//30
f  129//30 135//30 133//30

# Mesh '' with 12 faces
usemtl $Material_17
f  137//31 138//31 139//31
f  139//31 138//31 140//31
f  138//32 137//32 141//32
f  138//32 141//32 142//32
f  139//33 140//33 143//33
f  143//33 140//33 144//33
f  143//34 144//34 141//34
f  141//34 144//34 142//34
f  140//35 138//35 144//35
f  144//35 138//35 142//35
f  137//36 139//36 143//36
f  137//36 143//36 141//36

# Mesh '' with 12 faces
usemtl $Material_18
f  145//37 146//37 147//37
f  147//37 146//37 148//37
f  146//38 145//38 149//38
f  146//38 149//38 150//38
f  147//39 148//39 151//39
f  151//39 148//39 152//39
f  151//40 152//40 149//40
f  149//40 152//40 150//40
f  148//41 146//41 152//41
f  152//41 146//41 150//41
f  145//42 147//42 151//42
f  145//42 151//42 149//42

# Mesh '' with 12 faces
usemtl $Material_19
f  153//43 154//43 155//43
f  155//43 154//43 156//43
f  154//44 153//44 157//44
f  154//44 157//44 158//44
f  155//45 156//45 159//45
f  159//45 156//45 160//45
f  159//46 160//46 157//46
f  157//46 160//46 158//46
f  156//47 154//47 160//47
f  160//47 154//47 158//47
f  153//48 155//48 159//48
f  153//48 159//48 157//48

# Mesh '' with 12 faces
usemtl $Material_20
f  161//49 162//49 163//49
f  163//49 162//49 164//49
f  162//50 161//50 165//50
f  162//50 165//50 166//50
f  163//51 164//51 167//51
f  167//51 164//51 168//51
f  167//52 168//52 165//52
f  165//52 168//52 166//52
f  164//53 162//53 168//53
f  168//53 162//53 166//53
f  161//54 163//54 167//54
f  161//54 167//54 165//54

# Mesh '' with 12 faces
usemtl $Material_21
f  169//55 170//55 171//55
f  171//55 170//55 172//55
f  170//56 169//56 173//56
f  170//56 173//56 174//56
f  171//57 172//57 175//57
f  175//57 172//57 176//57
f  175//58 176//58 173//58
f  173//58 176//58 174//58
f  172//59 170//59 176//59
f  176//59 170//59 174//59
f  169//60 171//60 175//60
f  169//60 175//60 173//60

# Mesh '' with 132 faces
usemtl $Material_22
f  177/1/61 178/2/61 179/3/61
f  180/4/62 179/3/62 178/2/62
f  181/5/63 178/6/63 177/7/63
f  178/6/64 181/5/64 182/8/64
f  183/9/65 180/10/65 178/11/65
f  183/9/66 178/11/66 182/12/66
f  183/13/67 184/14/67 180/15/67
f  184/14/68 179/16/68 180/15/68
f  179/17/69 184/18/69 181/19/69
f  179/17/70 181/19/70 177/20/70
f  182/21/71 181/22/71 183/23/71
f  184/24/72 183/23/72 181/22/72
f  185/1/73 186/2/73 187/3/73
f  188/4/74 187/3/74 186/2/74
f  189/5/63 186/6/63 185/7/63
f  186/6/64 189/5/64 190/8/64
f  191/9/75 188/10/75 186/11/75
f  191/9/76 186/11/76 190/12/76
f  191/13/67 192/14/67 188/15/67
f  192/14/68 187/16/68 188/15/68
f  187/17/69 192/18/69 189/19/69
f  187/17/70 189/19/70 185/20/70
f  190/21/71 189/22/71 191/23/71
f  192/24/72 191/23/72 189/22/72
f  193/1/73 194/2/73 195/3/73
f  196/4/74 195/3/74 194/2/74
f  197/5/77 194/6/77 193/7/77
f  194/6/78 197/5/78 198/8/78
f  199/9/79 196/10/79 194/11/79
f  199/9/80 194/11/80 198/12/80
f  199/13/81 200/14/81 196/15/81
f  200/14/82 195/16/82 196/15/82
f  195/17/83 200/18/83 197/19/83
f  195/17/84 197/19/84 193/20/84
f  200/24/85 199/23/85 198/21/85
f  200/24/86 198/21/86 197/22/86
f  201/1/87 202/2/87 203/3/87
f  204/4/88 203/3/88 202/2/88
f  205/5/89 202/6/89 201/7/89
f  202/6/90 205/5/90 206/8/90
f  202/11/91 207/9/91 204/10/91
f  207/9/92 202/11/92 206/12/92
f  204/15/93 207/13/93 208/14/93
f  204/15/94 208/14/94 203/16/94
f  203/17/95 208/18/95 205/19/95
f  203/17/96 205/19/96 201/20/96
f  206/21/97 205/22/97 207/23/97
f  208/24/98 207/23/98 205/22/98
f  209/1/99 210/2/99 211/3/99
f  212/4/100 211/3/100 210/2/100
f  213/8/101 210/6/101 214/5/101
f  210/6/102 209/7/102 214/5/102
f  215/9/103 212/10/103 210/11/103
f  215/9/104 210/11/104 213/12/104
f  211/16/105 212/15/105 216/14/105
f  216/14/93 212/15/93 215/13/93
f  211/17/106 216/18/106 214/19/106
f  211/17/107 214/19/107 209/20/107
f  213/21/108 214/22/108 215/23/108
f  216/24/109 215/23/109 214/22/109
f  217/1/87 218/2/87 219/3/87
f  220/4/88 219/3/88 218/2/88
f  221/5/89 218/6/89 217/7/89
f  218/6/90 221/5/90 222/8/90
f  218/11/91 223/9/91 220/10/91
f  223/9/92 218/11/92 222/12/92
f  220/15/93 223/13/93 224/14/93
f  220/15/110 224/14/110 219/16/110
f  219/17/95 224/18/95 221/19/95
f  219/17/96 221/19/96 217/20/96
f  222/21/97 221/22/97 223/23/97
f  224/24/98 223/23/98 221/22/98
f  225/1/111 226/2/111 227/3/111
f  228/4/112 227/3/112 226/2/112
f  229/5/113 230/8/113 226/6/113
f  229/5/114 226/6/114 225/7/114
f  226/11/115 231/9/115 228/10/115
f  231/9/116 226/11/116 230/12/116
f  228/15/117 232/14/117 227/16/117
f  232/14/93 228/15/93 231/13/93
f  227/17/118 232/18/118 229/19/118
f  227/17/119 229/19/119 225/20/119
f  230/21/120 229/22/120 231/23/120
f  232/24/121 231/23/121 229/22/121
f  233/1/122 234/4/122 235/3/122
f  234/4/123 233/1/123 236/2/123
f  237/5/124 238/8/124 236/6/124
f  236/6/125 233/7/125 237/5/125
f  239/9/126 234/10/126 236/11/126
f  239/9/127 236/11/127 238/12/127
f  234/15/128 240/14/128 235/16/128
f  240/14/93 234/15/93 239/13/93
f  235/17/129 240/18/129 237/19/129
f  235/17/130 237/19/130 233/20/130
f  238/21/131 240/24/131 239/23/131
f  240/24/132 238/21/132 237/22/132
f  241/1/133 242/2/133 243/3/133
f  244/4/134 243/3/134 242/2/134
f  245/5/78 246/8/78 242/6/78
f  245/5/77 242/6/77 241/7/77
f  247/9/135 244/10/135 242/11/135
f  247/9/136 242/11/136 246/12/136
f  244/15/137 248/14/137 243/16/137
f  248/14/138 244/15/138 247/13/138
f  243/17/139 248/18/139 245/19/139
f  243/17/140 245/19/140 241/20/140
f  246/21/141 248/24/141 247/23/141
f  248/24/142 246/21/142 245/22/142
f  249/1/143 250/2/143 251/3/143
f  252/4/144 251/3/144 250/2/144
f  253/5/145 254/8/145 250/6/145
f  253/5/145 250/6/145 249/7/145
f  255/9/146 252/10/146 250/11/146
f  255/9/147 250/11/147 254/12/147
f  252/15/148 256/14/148 251/16/148
f  256/14/149 252/15/149 255/13/149
f  251/17/150 256/18/150 253/19/150
f  251/17/151 253/19/151 249/20/151
f  256/24/152 255/23/152 254/21/152
f  256/24/153 254/21/153 253/22/153
f  257/1/133 258/2/133 259/3/133
f  260/4/134 259/3/134 258/2/134
f  261/5/145 262/8/145 258/6/145
f  261/5/145 258/6/145 257/7/145
f  263/9/135 260/10/135 258/11/135
f  263/9/136 258/11/136 262/12/136
f  260/15/137 264/14/137 259/16/137
f  264/14/138 260/15/138 263/13/138
f  259/17/139 264/18/139 261/19/139
f  259/17/140 261/19/140 257/20/140
f  262/21/141 264/24/141 263/23/141
f  264/24/142 262/21/142 261/22/142

# Mesh '' with 168 faces
usemtl $Material_23
f  265/25/154 266/26/154 267/27/154
f  267/27/155 266/26/155 268/28/155
f  269/29/156 270/30/156 271/31/156
f  270/30/157 272/32/157 271/31/157
f  271/31/158 272/32/158 265/33/158
f  271/31/158 265/33/158 267/34/158
f  269/29/159 271/31/159 267/35/159
f  269/29/159 267/35/159 268/36/159
f  268/37/160 266/38/160 269/29/160
f  270/30/160 269/29/160 266/38/160
f  266/39/161 265/40/161 270/41/161
f  272/42/161 270/41/161 265/40/161
f  273/25/162 274/26/162 275/27/162
f  275/27/163 274/26/163 276/28/163
f  277/29/164 278/30/164 279/31/164
f  278/30/164 280/32/164 279/31/164
f  279/31/158 280/32/158 273/33/158
f  279/31/158 273/33/158 275/34/158
f  277/29/159 279/31/159 275/35/159
f  277/29/159 275/35/159 276/36/159
f  276/37/160 274/38/160 277/29/160
f  278/30/160 277/29/160 274/38/160
f  274/39/161 273/40/161 278/41/161
f  280/42/161 278/41/161 273/40/161
f  281/25/165 282/26/165 283/27/165
f  283/27/165 282/26/165 284/28/165
f  285/29/166 286/30/166 287/31/166
f  286/30/166 288/32/166 287/31/166
f  287/31/158 288/32/158 281/33/158
f  287/31/158 281/33/158 283/34/158
f  285/29/159 287/31/159 283/35/159
f  285/29/159 283/35/159 284/36/159
f  286/30/167 285/29/167 284/37/167
f  286/30/167 284/37/167 282/38/167
f  288/42/161 286/41/161 282/39/161
f  288/42/161 282/39/161 281/40/161
f  289/25/165 290/26/165 291/27/165
f  291/27/155 290/26/155 292/28/155
f  293/29/166 294/30/166 295/31/166
f  294/30/168 296/32/168 295/31/168
f  295/31/158 296/32/158 289/33/158
f  295/31/158 289/33/158 291/34/158
f  293/29/159 295/31/159 291/35/159
f  293/29/159 291/35/159 292/36/159
f  292/37/169 290/38/169 293/29/169
f  294/30/169 293/29/169 290/38/169
f  290/39/161 289/40/161 294/41/161
f  296/42/161 294/41/161 289/40/161
f  297/25/170 298/26/170 299/27/170
f  299/27/171 298/26/171 300/28/171
f  301/29/166 302/30/166 303/31/166
f  302/30/166 304/32/166 303/31/166
f  297/33/158 303/31/158 304/32/158
f  303/31/158 297/33/158 299/34/158
f  301/29/159 303/31/159 299/35/159
f  301/29/159 299/35/159 300/36/159
f  300/37/169 298/38/169 301/29/169
f  302/30/169 301/29/169 298/38/169
f  298/39/161 297/40/161 302/41/161
f  304/42/161 302/41/161 297/40/161
f  305/25/165 306/26/165 307/27/165
f  307/27/165 306/26/165 308/28/165
f  309/29/166 310/30/166 311/31/166
f  310/30/166 312/32/166 311/31/166
f  305/33/158 311/31/158 312/32/158
f  311/31/158 305/33/158 307/34/158
f  309/29/159 311/31/159 307/35/159
f  309/29/159 307/35/159 308/36/159
f  310/30/167 309/29/167 308/37/167
f  310/30/167 308/37/167 306/38/167
f  312/42/161 310/41/161 306/39/161
f  312/42/161 306/39/161 305/40/161
f  313/26/172 314/27/172 315/25/172
f  314/27/172 313/26/172 316/28/172
f  317/31/173 318/29/173 319/30/173
f  319/30/173 320/32/173 317/31/173
f  315/33/174 314/34/174 320/32/174
f  317/31/174 320/32/174 314/34/174
f  318/29/175 317/31/175 314/35/175
f  318/29/175 314/35/175 316/36/175
f  319/30/176 318/29/176 316/37/176
f  319/30/176 316/37/176 313/38/176
f  320/42/177 319/41/177 313/39/177
f  320/42/177 313/39/177 315/40/177
f  321/26/172 322/27/172 323/25/172
f  322/27/172 321/26/172 324/28/172
f  325/31/178 326/29/178 327/30/178
f  327/30/178 328/32/178 325/31/178
f  325/31/174 328/32/174 323/33/174
f  325/31/174 323/33/174 322/34/174
f  326/29/175 325/31/175 322/35/175
f  326/29/175 322/35/175 324/36/175
f  324/37/176 327/30/176 326/29/176
f  327/30/176 324/37/176 321/38/176
f  328/42/177 327/41/177 321/39/177
f  328/42/177 321/39/177 323/40/177
f  329/25/165 330/26/165 331/27/165
f  331/27/155 330/26/155 332/28/155
f  333/29/166 334/30/166 335/31/166
f  334/30/168 336/32/168 335/31/168
f  335/31/158 336/32/158 329/33/158
f  335/31/158 329/33/158 331/34/158
f  333/29/159 335/31/159 331/35/159
f  333/29/159 331/35/159 332/36/159
f  332/37/169 330/38/169 333/29/169
f  334/30/169 333/29/169 330/38/169
f  330/39/161 329/40/161 334/41/161
f  336/42/161 334/41/161 329/40/161
f  337/25/170 338/26/170 339/27/170
f  339/27/171 338/26/171 340/28/171
f  341/29/166 342/30/166 343/31/166
f  342/30/166 344/32/166 343/31/166
f  337/33/158 343/31/158 344/32/158
f  343/31/158 337/33/158 339/34/158
f  341/29/159 343/31/159 339/35/159
f  341/29/159 339/35/159 340/36/159
f  340/37/169 338/38/169 341/29/169
f  342/30/169 341/29/169 338/38/169
f  338/39/161 337/40/161 342/41/161
f  344/42/161 342/41/161 337/40/161
f  345/28/179 346/27/179 347/26/179
f  346/27/179 348/25/179 347/26/179
f  349/31/180 350/30/180 351/32/180
f  350/30/181 349/31/181 352/29/181
f  349/31/182 351/32/182 348/33/182
f  349/31/182 348/33/182 346/34/182
f  349/31/183 345/36/183 352/29/183
f  345/36/183 349/31/183 346/35/183
f  345/37/184 350/30/184 352/29/184
f  350/30/184 345/37/184 347/38/184
f  347/39/185 348/40/185 350/41/185
f  351/42/185 350/41/185 348/40/185
f  353/28/179 354/27/179 355/26/179
f  354/27/179 356/25/179 355/26/179
f  357/31/186 358/30/186 359/32/186
f  358/30/186 357/31/186 360/29/186
f  357/31/182 359/32/182 356/33/182
f  357/31/182 356/33/182 354/34/182
f  360/29/183 357/31/183 354/35/183
f  360/29/183 354/35/183 353/36/183
f  353/37/184 355/38/184 360/29/184
f  358/30/184 360/29/184 355/38/184
f  355/39/185 356/40/185 358/41/185
f  359/42/185 358/41/185 356/40/185
f  361/28/165 362/27/165 363/26/165
f  362/27/165 364/25/165 363/26/165
f  365/31/166 366/30/166 367/32/166
f  366/30/166 365/31/166 368/29/166
f  365/31/187 367/32/187 364/33/187
f  365/31/187 364/33/187 362/34/187
f  368/29/188 365/31/188 362/35/188
f  368/29/188 362/35/188 361/36/188
f  366/30/189 368/29/189 361/37/189
f  366/30/189 361/37/189 363/38/189
f  367/42/190 366/41/190 363/39/190
f  367/42/190 363/39/190 364/40/190
f  369/28/165 370/27/165 371/26/165
f  370/27/165 372/25/165 371/26/165
f  373/31/191 374/30/191 375/32/191
f  374/30/166 373/31/166 376/29/166
f  373/31/182 375/32/182 372/33/182
f  373/31/182 372/33/182 370/34/182
f  376/29/192 373/31/192 370/35/192
f  376/29/192 370/35/192 369/36/192
f  374/30/193 376/29/193 369/37/193
f  374/30/193 369/37/193 371/38/193
f  371/39/194 372/40/194 374/41/194
f  375/42/194 374/41/194 372/40/194

# Mesh '' with 55 faces
usemtl $Material_24
f  377/43/195 378/44/195 379/45/195
f  379/45/195 378/44/195 380/46/195
f  378/47/196 381/48/196 380/49/196
f  381/48/196 382/50/196 380/49/196
f  379/51/197 383/52/197 377/53/197
f  383/52/197 384/54/197 377/53/197
f  384/54/197 383/52/197 385/55/197
f  383/52/198 382/56/198 385/55/198
f  377/57/199 384/58/199 378/59/199
f  384/58/200 381/60/200 378/59/200
f  385/61/201 382/62/201 384/63/201
f  384/63/202 382/62/202 381/64/202
f  379/65/203 380/66/203 383/67/203
f  383/67/204 380/66/204 382/68/204
f  386/45/205 387/43/205 388/46/205
f  387/43/205 389/44/205 388/46/205
f  389/47/206 390/48/206 388/49/206
f  390/48/206 391/50/206 388/49/206
f  386/51/207 392/52/207 387/53/207
f  392/52/208 393/54/208 387/53/208
f  393/54/197 392/52/197 394/55/197
f  392/52/209 391/69/209 394/55/209
f  387/57/210 393/58/210 390/60/210
f  387/57/210 390/60/210 389/59/210
f  394/61/211 391/62/211 393/63/211
f  393/63/212 391/62/212 390/64/212
f  386/65/213 388/66/213 392/67/213
f  392/67/214 388/66/214 391/68/214
f  395/43/215 396/44/215 397/45/215
f  397/45/216 396/44/216 398/46/216
f  396/47/196 399/48/196 398/49/196
f  399/48/196 400/50/196 398/49/196
f  397/51/197 401/52/197 395/53/197
f  401/52/197 402/54/197 395/53/197
f  402/54/197 401/52/197 403/55/197
f  401/52/217 400/56/217 403/55/217
f  395/57/199 402/58/199 396/59/199
f  402/58/200 399/60/200 396/59/200
f  403/61/218 400/62/218 402/63/218
f  402/63/219 400/62/219 399/64/219
f  397/65/203 398/66/203 401/67/203
f  401/67/204 398/66/204 400/68/204
f  404/43/220 405/44/220 406/45/220
f  406/45/221 405/44/221 407/46/221
f  408/50/196 407/49/196 409/48/196
f  409/48/196 407/49/196 405/47/196
f  404/53/197 406/51/197 410/52/197
f  404/53/197 410/52/197 411/54/197
f  410/52/222 408/70/222 411/54/222
f  404/57/223 411/58/223 405/59/223
f  411/58/224 409/60/224 405/59/224
f  412/61/225 409/64/225 411/63/225
f  409/64/226 412/61/226 408/62/226
f  406/65/227 407/66/227 410/67/227
f  410/67/228 407/66/228 408/68/228

