# File produced by Open Asset Import Library (http://www.assimp.sf.net)
# (assimp v5.2.0)

mtllib shippingBoxes.mtl

# 216 vertex positions
v  -6.85702085 -5.89646196 1.29120278
v  -7.71875048 -5.89667034 0.870757282
v  -7.71875048 -5.89667034 1.29120278
v  -6.85702085 -5.89646196 0.870757282
v  -7.71435738 -6.47176552 0.870757282
v  -6.85262775 -6.47155714 0.870757282
v  -7.7144537 -6.45909882 1.29120278
v  -6.85262775 -6.47155714 1.29120278
v  -7.71435738 -6.47176456 1.29120278
v  -6.8209362 -7.93900824 0.420763433
v  -6.82114458 -7.07727814 0.00031790731
v  -6.82114458 -7.07727814 0.420763433
v  -6.8209362 -7.93900824 0.00031790731
v  -7.39623976 -7.08167219 0.00031790731
v  -7.39603233 -7.94340134 0.00031790731
v  -7.39603138 -7.94340134 0.420763433
v  -7.38357306 -7.08157539 0.420763433
v  -7.39623976 -7.08167219 0.420763433
v  -6.8209362 -7.93900824 0.854767323
v  -6.82114458 -7.07727814 0.434321731
v  -6.82114458 -7.07727814 0.854767323
v  -6.8209362 -7.93900824 0.434321731
v  -7.39623976 -7.08167219 0.434321731
v  -7.39603233 -7.94340134 0.434321731
v  -7.39603138 -7.94340134 0.854767323
v  -7.38357306 -7.08157539 0.854767323
v  -7.39623976 -7.08167219 0.854767323
v  -6.8209362 -7.93900824 1.29120278
v  -6.82114458 -7.07727814 0.870757282
v  -6.82114458 -7.07727814 1.29120278
v  -6.8209362 -7.93900824 0.870757282
v  -7.39623976 -7.08167219 0.870757282
v  -7.39603233 -7.94340134 0.870757282
v  -7.39603138 -7.94340134 1.29120278
v  -7.38357306 -7.08157539 1.29120278
v  -7.39623976 -7.08167219 1.29120278
v  -7.40668774 -7.93900871 0.420763433
v  -7.40689564 -7.07727861 0.00031790731
v  -7.40689564 -7.07727861 0.420763433
v  -7.40668774 -7.93900871 0.00031790731
v  -7.98199081 -7.08167267 0.00031790731
v  -7.98178291 -7.94340134 0.00031790731
v  -7.98178291 -7.94340134 0.420763433
v  -7.96932459 -7.08157539 0.420763433
v  -7.98199081 -7.08167267 0.420763433
v  -7.40668774 -7.93900871 0.854767323
v  -7.40689564 -7.07727861 0.434321731
v  -7.40689564 -7.07727861 0.854767323
v  -7.40668774 -7.93900871 0.434321731
v  -7.98199081 -7.08167267 0.434321731
v  -7.98178291 -7.94340134 0.434321731
v  -7.98178291 -7.94340134 0.854767323
v  -7.96932459 -7.08157539 0.854767323
v  -7.98199081 -7.08167267 0.854767323
v  -7.40668774 -7.93900871 1.29120278
v  -7.40689564 -7.07727861 0.870757282
v  -7.40689564 -7.07727861 1.29120278
v  -7.40668774 -7.93900871 0.870757282
v  -7.98199081 -7.08167267 0.870757282
v  -7.98178291 -7.94340134 0.870757282
v  -7.98178291 -7.94340134 1.29120278
v  -7.96932459 -7.08157539 1.29120278
v  -7.98199081 -7.08167267 1.29120278
v  -7.14742088 -7.93900824 1.72520661
v  -7.14762926 -7.07727909 1.30476105
v  -7.14762926 -7.07727909 1.72520661
v  -7.14742088 -7.93900824 1.30476105
v  -7.72272444 -7.08167219 1.30476105
v  -7.72251606 -7.94340086 1.30476105
v  -7.72251606 -7.94340086 1.72520661
v  -7.71005774 -7.08157587 1.72520661
v  -7.72272444 -7.08167219 1.72520661
v  -6.85702085 -5.89646101 0.420763433
v  -7.71875048 -5.89666939 0.00031790731
v  -7.71875048 -5.89666939 0.420763433
v  -6.85702085 -5.89646101 0.00031790731
v  -7.71435738 -6.47176456 0.00031790731
v  -6.85262775 -6.47155619 0.00031790731
v  -7.7144537 -6.45909786 0.420763433
v  -6.85262775 -6.47155619 0.420763433
v  -7.71435738 -6.47176361 0.420763433
v  -6.85702085 -5.89646101 0.854767323
v  -7.71875048 -5.89666939 0.434321731
v  -7.71875048 -5.89666939 0.854767323
v  -6.85702085 -5.89646101 0.434321731
v  -7.71435738 -6.47176456 0.434321731
v  -6.85262775 -6.47155619 0.434321731
v  -7.7144537 -6.45909786 0.854767323
v  -6.85262775 -6.47155619 0.854767323
v  -7.71435738 -6.47176361 0.854767323
v  -6.8570199 -6.48221302 0.420763433
v  -7.71875 -6.4824214 0.00031790731
v  -7.71875 -6.4824214 0.420763433
v  -6.8570199 -6.48221302 0.00031790731
v  -7.7143569 -7.05751657 0.00031790731
v  -6.8526268 -7.05730867 0.00031790731
v  -7.71445274 -7.04484987 0.420763433
v  -6.8526268 -7.05730867 0.420763433
v  -7.71435642 -7.05751562 0.420763433
v  -6.8570199 -6.48221302 0.854767323
v  -7.71875 -6.4824214 0.434321731
v  -7.71875 -6.4824214 0.854767323
v  -6.8570199 -6.48221302 0.434321731
v  -7.7143569 -7.05751657 0.434321731
v  -6.8526268 -7.05730867 0.434321731
v  -7.71445274 -7.04484987 0.854767323
v  -6.8526268 -7.05730867 0.854767323
v  -7.71435642 -7.05751562 0.854767323
v  -6.8570199 -6.48221302 1.29120278
v  -7.71875 -6.4824214 0.870757282
v  -7.71875 -6.4824214 1.29120278
v  -6.8570199 -6.48221302 0.870757282
v  -7.7143569 -7.05751657 0.870757282
v  -6.8526268 -7.05730867 0.870757282
v  -7.71445274 -7.04484987 1.29120278
v  -6.8526268 -7.05730867 1.29120278
v  -7.71435642 -7.05751562 1.29120278
v  -7.09634209 -6.93926573 1.72520661
v  -7.09654999 -6.07753563 1.30476105
v  -7.09654999 -6.07753563 1.72520661
v  -7.09634209 -6.93926573 1.30476105
v  -7.67164421 -6.08193016 1.30476105
v  -7.67143726 -6.94365883 1.30476105
v  -7.67143583 -6.94365883 1.72520661
v  -7.65897751 -6.08183289 1.72520661
v  -7.67164421 -6.08193016 1.72520661
v  -7.72850657 -5.89646101 0.420763433
v  -8.59023476 -5.89666891 0.00031790731
v  -8.59023476 -5.89666891 0.420763433
v  -7.72850657 -5.89646101 0.00031790731
v  -8.58584213 -6.47176409 0.00031790731
v  -7.72411203 -6.47155714 0.00031790731
v  -8.5859375 -6.45909834 0.420763433
v  -7.72411203 -6.47155619 0.420763433
v  -8.58584213 -6.47176409 0.420763433
v  -7.72850657 -5.89646101 0.854767323
v  -8.59023476 -5.89666891 0.434321731
v  -8.59023476 -5.89666891 0.854767323
v  -7.72850657 -5.89646101 0.434321731
v  -8.58584213 -6.47176409 0.434321731
v  -7.72411203 -6.47155714 0.434321731
v  -8.5859375 -6.45909834 0.854767323
v  -7.72411203 -6.47155619 0.854767323
v  -8.58584213 -6.47176409 0.854767323
v  -7.72850657 -5.89646101 1.29120278
v  -8.59023476 -5.89666891 0.870757282
v  -8.59023476 -5.89666891 1.29120278
v  -7.72850657 -5.89646101 0.870757282
v  -8.58584213 -6.47176409 0.870757282
v  -7.72411203 -6.47155714 0.870757282
v  -8.5859375 -6.45909834 1.29120278
v  -7.72411203 -6.47155619 1.29120278
v  -8.58584213 -6.47176409 1.29120278
v  -7.72850561 -6.48221397 0.420763433
v  -8.59023571 -6.48242092 0.00031790731
v  -8.59023571 -6.48242092 0.420763433
v  -7.72850561 -6.48221397 0.00031790731
v  -8.58584118 -7.05751657 0.00031790731
v  -7.72411156 -7.05730915 0.00031790731
v  -8.5859375 -7.04485035 0.420763433
v  -7.72411156 -7.0573082 0.420763433
v  -8.58584118 -7.05751657 0.420763433
v  -7.72850561 -6.48221397 0.854767323
v  -8.59023571 -6.48242092 0.434321731
v  -8.59023571 -6.48242092 0.854767323
v  -7.72850561 -6.48221397 0.434321731
v  -8.58584118 -7.05751657 0.434321731
v  -7.72411156 -7.05730915 0.434321731
v  -8.5859375 -7.04485035 0.854767323
v  -7.72411156 -7.0573082 0.854767323
v  -8.58584118 -7.05751657 0.854767323
v  -7.72850561 -6.48221397 1.29120278
v  -8.59023571 -6.48242092 0.870757282
v  -8.59023571 -6.48242092 1.29120278
v  -7.72850561 -6.48221397 0.870757282
v  -8.58584118 -7.05751657 0.870757282
v  -7.72411156 -7.05730915 0.870757282
v  -8.5859375 -7.04485035 1.29120278
v  -7.72411156 -7.0573082 1.29120278
v  -8.58584118 -7.05751657 1.29120278
v  -7.72850513 -6.63620424 1.72520661
v  -8.59023476 -6.63641262 1.30476105
v  -8.59023476 -6.63641262 1.72520661
v  -7.72850513 -6.63620424 1.30476105
v  -8.58584118 -7.2115078 1.30476105
v  -7.7241106 -7.21130085 1.30476105
v  -8.5859375 -7.19884205 1.72520661
v  -7.7241106 -7.2112999 1.72520661
v  -8.58584118 -7.2115078 1.72520661
v  -7.98143196 -7.93900824 0.420763433
v  -7.98163939 -7.07727909 0.00031790731
v  -7.98163939 -7.07727909 0.420763433
v  -7.98143196 -7.93900824 0.00031790731
v  -8.55673409 -7.08167219 0.00031790731
v  -8.55652714 -7.94340229 0.00031790731
v  -8.55652618 -7.94340229 0.420763433
v  -8.54406738 -7.08157635 0.420763433
v  -8.55673409 -7.08167219 0.420763433
v  -7.98143196 -7.93900824 0.854767323
v  -7.98163939 -7.07727909 0.434321731
v  -7.98163939 -7.07727909 0.854767323
v  -7.98143196 -7.93900824 0.434321731
v  -8.55673409 -7.08167219 0.434321731
v  -8.55652714 -7.94340229 0.434321731
v  -8.55652618 -7.94340229 0.854767323
v  -8.54406738 -7.08157635 0.854767323
v  -8.55673409 -7.08167219 0.854767323
v  -7.98143196 -7.93900824 1.29120278
v  -7.98163939 -7.07727909 0.870757282
v  -7.98163939 -7.07727909 1.29120278
v  -7.98143196 -7.93900824 0.870757282
v  -8.55673409 -7.08167219 0.870757282
v  -8.55652714 -7.94340229 0.870757282
v  -8.55652618 -7.94340229 1.29120278
v  -8.54406738 -7.08157635 1.29120278
v  -8.55673409 -7.08167219 1.29120278

# 26 UV coordinates
vt 0.0270380005 0.692023993 0
vt 0.486954004 0.424800009 0
vt 0.486957014 0.692023993 0
vt 0.0270380005 0.424800009 0
vt 0.506995976 0.401663005 0
vt 0.966910005 0.0361680016 0
vt 0.966910005 0.401663005 0
vt 0.506995976 0.0361680016 0
vt 0.0295439996 0.0434300005 0
vt 0.489461005 0.415224999 0
vt 0.0295439996 0.415223986 0
vt 0.489461005 0.0353799984 0
vt 0.0295439996 0.0353799984 0
vt 0.0374220014 0.971548021 0
vt 0.407335013 0.698760986 0
vt 0.409054011 0.971741974 0
vt 0.0392110012 0.698716998 0
vt 0.965462029 0.676851988 0
vt 0.505545974 0.676851988 0
vt 0.505545974 0.409621 0
vt 0.965458989 0.409621 0
vt 0.914572001 0.962378025 0
vt 0.922325015 0.705030978 0
vt 0.922325015 0.962378025 0
vt 0.570343971 0.705030978 0
vt 0.570343018 0.962377012 0

# 111 vertex normals
vn -0.000241813439 1 3.65985996e-17
vn 0 0 -1
vn -4.18976377e-17 0 1
vn 0.999970853 0.00763878878 0
vn 0.000240533831 -1 2.26823749e-06
vn 0.000241640519 -1 0
vn -0.999971211 -0.00759196933 5.70908441e-08
vn -0.999970853 -0.00763878459 1.46759271e-06
vn -0.999970853 -0.00763988169 1.67400815e-16
vn 1 0.0002416059 -5.55111512e-17
vn 0.00763889495 -0.999970853 -1.11022302e-16
vn 0.0076386733 -0.999970853 -3.03556249e-07
vn -1 -0.000241571543 1.11018947e-16
vn -1 -0.000240291964 2.62259232e-06
vn -0.0076617673 0.999970615 1.8951854e-16
vn -0.00764034642 0.999970853 -6.45392333e-07
vn -0.00763986399 0.999970853 8.45677695e-18
vn 0.0076386733 -0.999970853 -3.0355622e-07
vn -1 -0.000240291964 2.62259209e-06
vn -0.00764034642 0.999970853 -6.45392277e-07
vn 0.0076386733 -0.999970853 -3.03556277e-07
vn -1 -0.000240291964 2.62259255e-06
vn -0.00764034642 0.999970853 -6.4539239e-07
vn 1 0.000241571281 5.55111512e-17
vn 0.00763848051 -0.999970853 1.11022302e-16
vn -1 -0.000241606147 1.2490009e-16
vn -0.00766057288 0.999970615 -2.34187669e-17
vn -0.0076402938 0.999970853 -6.10995414e-07
vn -0.00763983699 0.999970853 1.77809156e-17
vn -0.0076402938 0.999970853 -6.10995471e-07
vn 1 0.000241606162 -5.55111512e-17
vn 0.00763868727 -0.999970853 0
vn -1 -0.000241591013 5.55111512e-17
vn -0.00758530619 0.999971271 -7.19910243e-17
vn -0.00763863605 0.999970853 1.60673005e-06
vn -0.00763983699 0.999970853 -9.97465999e-18
vn -0.000241675109 1 2.66374921e-17
vn 0.999970853 0.00763879064 -1.11022302e-16
vn 0.000240533831 -1 2.26823727e-06
vn -0.999971211 -0.00759195164 5.70908014e-08
vn -0.999970853 -0.00763878459 1.46813397e-06
vn -0.999970853 -0.00763988215 -1.10154941e-16
vn -0.999971211 -0.00759195164 5.70907979e-08
vn -0.000241675109 1 1.90684057e-17
vn 0.999970853 0.00763878971 -1.66533454e-16
vn 0.000240516543 -1 2.26823727e-06
vn 0.000241623231 -1 -1.11022302e-16
vn -0.999971211 -0.00759210763 5.70911531e-08
vn -0.999970853 -0.00763878413 1.4634154e-06
vn -0.999970853 -0.00763987796 -1.10154941e-16
vn -0.999971211 -0.00759210763 5.70911496e-08
vn -0.999970853 -0.00763878413 1.46341529e-06
vn 0.000240516543 -1 2.26823749e-06
vn -0.999971211 -0.00759210763 5.70911602e-08
vn -0.999970853 -0.00763878413 1.46341551e-06
vn 1 0.000241536691 0
vn 0.00763872592 -0.999970853 1.11022302e-16
vn 0.00763867516 -0.999970853 -6.94409081e-08
vn -1 -0.000241588859 9.71445147e-17
vn -1 -0.000240266003 2.71125191e-06
vn -0.0076605822 0.999970615 6.4401609e-17
vn -0.00764046423 0.999970853 -6.06123479e-07
vn -0.00764001114 0.999970853 6.24500451e-17
vn -0.000241675443 1 -4.05152799e-17
vn 0.999970853 0.0076407725 -1.66533454e-16
vn 0.999970853 0.00764072733 -6.21730578e-08
vn 0.000241640504 -1 0
vn 0.000240499226 -1 2.33911896e-06
vn -0.999971211 -0.00759033393 7.71951947e-17
vn -0.999970853 -0.00763858389 1.45361821e-06
vn -0.999970853 -0.00763967028 -5.48606299e-17
vn 0.999970853 0.00764072733 -6.21730507e-08
vn 0.000240499226 -1 2.33911874e-06
vn -0.999970853 -0.00763858389 1.4536181e-06
vn 0.999970853 0.0076407725 -1.11022302e-16
vn 0.999970853 0.00764072733 -6.21730649e-08
vn 0.000240499226 -1 2.33911919e-06
vn -0.999971211 -0.00759033393 2.16840434e-17
vn -0.999970853 -0.00763858389 1.45361832e-06
vn -0.000240568421 1 5.40474783e-17
vn 0.999970853 0.00764081068 0
vn 0.999970853 0.00764076877 -5.72015146e-08
vn -0.999971211 -0.00759032974 7.71951947e-17
vn -0.999970853 -0.00764075946 1.51930169e-06
vn -0.999970853 -0.00764189521 8.67361738e-19
vn 0.999970853 0.00764076877 -5.72015111e-08
vn -0.999970853 -0.00764075946 1.51930158e-06
vn 0.999970853 0.00764076877 -5.72015182e-08
vn -0.999970853 -0.00764075946 1.5193018e-06
vn -0.000241640533 1 1.54851175e-16
vn 0.999970853 0.00764076551 -5.55111512e-17
vn 0.999970853 0.0076407236 -5.7743005e-08
vn 0.000241605638 -1 0
vn 0.00024046436 -1 2.33911987e-06
vn -0.999971151 -0.00759503944 -6.04984812e-17
vn -0.999970853 -0.00763889402 1.32121147e-06
vn -0.999970853 -0.00763988169 5.6378513e-17
vn 1 0.000240326524 1.11022302e-16
vn 0.00764036132 -0.999970853 -1.11022302e-16
vn 0.00764034549 -0.999970853 -2.16627374e-08
vn -1 -0.000241605885 -5.55111512e-17
vn -1 -0.000240222507 2.83530858e-06
vn -0.00758648338 0.999971211 6.70036943e-17
vn -0.00763868866 0.999970853 1.5728433e-06
vn -0.00763986446 0.999970853 -8.02309608e-18
vn 0.00764034549 -0.999970853 -2.16627356e-08
vn -0.00763868866 0.999970853 1.57284319e-06
vn -0.00763986446 0.999970853 -3.57786717e-17
vn 0.00764034549 -0.999970853 -2.16627392e-08
vn -1 -0.000240222507 2.83530881e-06
vn -0.00763868866 0.999970853 1.57284342e-06

# Mesh '' with 336 faces
usemtl $Material_0
f  1/1/1 2/2/1 3/3/1
f  2/2/1 1/1/1 4/4/1
f  4/5/2 5/6/2 2/7/2
f  5/6/2 4/5/2 6/8/2
f  7/9/3 1/10/3 3/11/3
f  1/10/3 7/9/3 8/12/3
f  9/13/3 8/12/3 7/9/3
f  8/14/4 4/15/4 1/16/4
f  4/15/4 8/14/4 6/17/4
f  8/18/5 9/19/5 5/20/5
f  8/18/6 5/20/6 6/21/6
f  7/22/7 5/23/7 9/24/7
f  5/23/8 7/22/8 2/25/8
f  7/22/9 3/26/9 2/25/9
f  10/1/10 11/2/10 12/3/10
f  11/2/10 10/1/10 13/4/10
f  13/5/2 14/6/2 11/7/2
f  14/6/2 13/5/2 15/8/2
f  16/12/3 17/9/3 18/13/3
f  10/10/3 17/9/3 16/12/3
f  17/9/3 10/10/3 12/11/3
f  16/14/11 13/15/11 10/16/11
f  13/15/12 16/14/12 15/17/12
f  16/18/13 18/19/13 14/20/13
f  16/18/14 14/20/14 15/21/14
f  17/22/15 14/23/15 18/24/15
f  14/23/16 17/22/16 11/25/16
f  17/22/17 12/26/17 11/25/17
f  19/1/10 20/2/10 21/3/10
f  20/2/10 19/1/10 22/4/10
f  22/5/2 23/6/2 20/7/2
f  23/6/2 22/5/2 24/8/2
f  25/12/3 26/9/3 27/13/3
f  19/10/3 26/9/3 25/12/3
f  26/9/3 19/10/3 21/11/3
f  25/14/11 22/15/11 19/16/11
f  22/15/18 25/14/18 24/17/18
f  25/18/13 27/19/13 23/20/13
f  25/18/19 23/20/19 24/21/19
f  26/22/15 23/23/15 27/24/15
f  23/23/20 26/22/20 20/25/20
f  26/22/17 21/26/17 20/25/17
f  28/1/10 29/2/10 30/3/10
f  29/2/10 28/1/10 31/4/10
f  31/5/2 32/6/2 29/7/2
f  32/6/2 31/5/2 33/8/2
f  34/12/3 35/9/3 36/13/3
f  28/10/3 35/9/3 34/12/3
f  35/9/3 28/10/3 30/11/3
f  34/14/11 31/15/11 28/16/11
f  31/15/21 34/14/21 33/17/21
f  34/18/13 36/19/13 32/20/13
f  34/18/22 32/20/22 33/21/22
f  35/22/15 32/23/15 36/24/15
f  32/23/23 35/22/23 29/25/23
f  35/22/17 30/26/17 29/25/17
f  37/1/24 38/2/24 39/3/24
f  38/2/24 37/1/24 40/4/24
f  40/5/2 41/6/2 38/7/2
f  41/6/2 40/5/2 42/8/2
f  43/12/3 44/9/3 45/13/3
f  37/10/3 44/9/3 43/12/3
f  44/9/3 37/10/3 39/11/3
f  43/14/25 40/15/25 37/16/25
f  40/15/25 43/14/25 42/17/25
f  43/18/26 45/19/26 41/20/26
f  43/18/26 41/20/26 42/21/26
f  44/22/27 41/23/27 45/24/27
f  41/23/28 44/22/28 38/25/28
f  44/22/29 39/26/29 38/25/29
f  46/1/24 47/2/24 48/3/24
f  47/2/24 46/1/24 49/4/24
f  49/5/2 50/6/2 47/7/2
f  50/6/2 49/5/2 51/8/2
f  52/12/3 53/9/3 54/13/3
f  46/10/3 53/9/3 52/12/3
f  53/9/3 46/10/3 48/11/3
f  52/14/25 49/15/25 46/16/25
f  49/15/25 52/14/25 51/17/25
f  52/18/26 54/19/26 50/20/26
f  52/18/26 50/20/26 51/21/26
f  53/22/27 50/23/27 54/24/27
f  50/23/28 53/22/28 47/25/28
f  53/22/29 48/26/29 47/25/29
f  55/1/24 56/2/24 57/3/24
f  56/2/24 55/1/24 58/4/24
f  58/5/2 59/6/2 56/7/2
f  59/6/2 58/5/2 60/8/2
f  61/12/3 62/9/3 63/13/3
f  55/10/3 62/9/3 61/12/3
f  62/9/3 55/10/3 57/11/3
f  61/14/25 58/15/25 55/16/25
f  58/15/25 61/14/25 60/17/25
f  61/18/26 63/19/26 59/20/26
f  61/18/26 59/20/26 60/21/26
f  62/22/27 59/23/27 63/24/27
f  59/23/30 62/22/30 56/25/30
f  62/22/29 57/26/29 56/25/29
f  64/1/31 65/2/31 66/3/31
f  65/2/31 64/1/31 67/4/31
f  67/5/2 68/6/2 65/7/2
f  68/6/2 67/5/2 69/8/2
f  70/12/3 71/9/3 72/13/3
f  64/10/3 71/9/3 70/12/3
f  71/9/3 64/10/3 66/11/3
f  70/14/32 67/15/32 64/16/32
f  67/15/32 70/14/32 69/17/32
f  70/18/33 72/19/33 68/20/33
f  70/18/33 68/20/33 69/21/33
f  71/22/34 68/23/34 72/24/34
f  68/23/35 71/22/35 65/25/35
f  71/22/36 66/26/36 65/25/36
f  73/1/37 74/2/37 75/3/37
f  74/2/37 73/1/37 76/4/37
f  76/5/2 77/6/2 74/7/2
f  77/6/2 76/5/2 78/8/2
f  79/9/3 73/10/3 75/11/3
f  73/10/3 79/9/3 80/12/3
f  81/13/3 80/12/3 79/9/3
f  80/14/38 76/15/38 73/16/38
f  76/15/38 80/14/38 78/17/38
f  80/18/39 81/19/39 77/20/39
f  80/18/6 77/20/6 78/21/6
f  79/22/40 77/23/40 81/24/40
f  77/23/41 79/22/41 74/25/41
f  79/22/42 75/26/42 74/25/42
f  82/1/37 83/2/37 84/3/37
f  83/2/37 82/1/37 85/4/37
f  85/5/2 86/6/2 83/7/2
f  86/6/2 85/5/2 87/8/2
f  88/9/3 82/10/3 84/11/3
f  82/10/3 88/9/3 89/12/3
f  90/13/3 89/12/3 88/9/3
f  89/14/38 85/15/38 82/16/38
f  85/15/38 89/14/38 87/17/38
f  89/18/39 90/19/39 86/20/39
f  89/18/6 86/20/6 87/21/6
f  88/22/43 86/23/43 90/24/43
f  86/23/41 88/22/41 83/25/41
f  88/22/42 84/26/42 83/25/42
f  91/1/44 92/2/44 93/3/44
f  92/2/44 91/1/44 94/4/44
f  94/5/2 95/6/2 92/7/2
f  95/6/2 94/5/2 96/8/2
f  97/9/3 91/10/3 93/11/3
f  91/10/3 97/9/3 98/12/3
f  99/13/3 98/12/3 97/9/3
f  98/14/45 94/15/45 91/16/45
f  94/15/45 98/14/45 96/17/45
f  98/18/46 99/19/46 95/20/46
f  98/18/47 95/20/47 96/21/47
f  97/22/48 95/23/48 99/24/48
f  95/23/49 97/22/49 92/25/49
f  97/22/50 93/26/50 92/25/50
f  100/1/44 101/2/44 102/3/44
f  101/2/44 100/1/44 103/4/44
f  103/5/2 104/6/2 101/7/2
f  104/6/2 103/5/2 105/8/2
f  106/9/3 100/10/3 102/11/3
f  100/10/3 106/9/3 107/12/3
f  108/13/3 107/12/3 106/9/3
f  107/14/45 103/15/45 100/16/45
f  103/15/45 107/14/45 105/17/45
f  107/18/46 108/19/46 104/20/46
f  107/18/47 104/20/47 105/21/47
f  106/22/51 104/23/51 108/24/51
f  104/23/52 106/22/52 101/25/52
f  106/22/50 102/26/50 101/25/50
f  109/1/44 110/2/44 111/3/44
f  110/2/44 109/1/44 112/4/44
f  112/5/2 113/6/2 110/7/2
f  113/6/2 112/5/2 114/8/2
f  115/9/3 109/10/3 111/11/3
f  109/10/3 115/9/3 116/12/3
f  117/13/3 116/12/3 115/9/3
f  116/14/45 112/15/45 109/16/45
f  112/15/45 116/14/45 114/17/45
f  116/18/53 117/19/53 113/20/53
f  116/18/47 113/20/47 114/21/47
f  115/22/54 113/23/54 117/24/54
f  113/23/55 115/22/55 110/25/55
f  115/22/50 111/26/50 110/25/50
f  118/1/56 119/2/56 120/3/56
f  119/2/56 118/1/56 121/4/56
f  121/5/2 122/6/2 119/7/2
f  122/6/2 121/5/2 123/8/2
f  124/12/3 125/9/3 126/13/3
f  118/10/3 125/9/3 124/12/3
f  125/9/3 118/10/3 120/11/3
f  124/14/57 121/15/57 118/16/57
f  121/15/58 124/14/58 123/17/58
f  124/18/59 126/19/59 122/20/59
f  124/18/60 122/20/60 123/21/60
f  125/22/61 122/23/61 126/24/61
f  122/23/62 125/22/62 119/25/62
f  125/22/63 120/26/63 119/25/63
f  127/1/64 128/2/64 129/3/64
f  128/2/64 127/1/64 130/4/64
f  130/5/2 131/6/2 128/7/2
f  131/6/2 130/5/2 132/8/2
f  133/9/3 127/10/3 129/11/3
f  127/10/3 133/9/3 134/12/3
f  135/13/3 134/12/3 133/9/3
f  134/14/65 130/15/65 127/16/65
f  130/15/66 134/14/66 132/17/66
f  134/18/67 135/19/67 131/20/67
f  134/18/68 131/20/68 132/21/68
f  133/22/69 131/23/69 135/24/69
f  131/23/70 133/22/70 128/25/70
f  133/22/71 129/26/71 128/25/71
f  136/1/64 137/2/64 138/3/64
f  137/2/64 136/1/64 139/4/64
f  139/5/2 140/6/2 137/7/2
f  140/6/2 139/5/2 141/8/2
f  142/9/3 136/10/3 138/11/3
f  136/10/3 142/9/3 143/12/3
f  144/13/3 143/12/3 142/9/3
f  143/14/65 139/15/65 136/16/65
f  139/15/72 143/14/72 141/17/72
f  143/18/67 144/19/67 140/20/67
f  143/18/73 140/20/73 141/21/73
f  142/22/69 140/23/69 144/24/69
f  140/23/74 142/22/74 137/25/74
f  142/22/71 138/26/71 137/25/71
f  145/1/64 146/2/64 147/3/64
f  146/2/64 145/1/64 148/4/64
f  148/5/2 149/6/2 146/7/2
f  149/6/2 148/5/2 150/8/2
f  151/9/3 145/10/3 147/11/3
f  145/10/3 151/9/3 152/12/3
f  153/13/3 152/12/3 151/9/3
f  152/14/75 148/15/75 145/16/75
f  148/15/76 152/14/76 150/17/76
f  152/18/67 153/19/67 149/20/67
f  152/18/77 149/20/77 150/21/77
f  151/22/78 149/23/78 153/24/78
f  149/23/79 151/22/79 146/25/79
f  151/22/71 147/26/71 146/25/71
f  154/1/80 155/2/80 156/3/80
f  155/2/80 154/1/80 157/4/80
f  157/5/2 158/6/2 155/7/2
f  158/6/2 157/5/2 159/8/2
f  160/9/3 154/10/3 156/11/3
f  154/10/3 160/9/3 161/12/3
f  162/13/3 161/12/3 160/9/3
f  161/14/81 157/15/81 154/16/81
f  157/15/82 161/14/82 159/17/82
f  161/18/6 162/19/6 158/20/6
f  161/18/39 158/20/39 159/21/39
f  160/22/83 158/23/83 162/24/83
f  158/23/84 160/22/84 155/25/84
f  160/22/85 156/26/85 155/25/85
f  163/1/80 164/2/80 165/3/80
f  164/2/80 163/1/80 166/4/80
f  166/5/2 167/6/2 164/7/2
f  167/6/2 166/5/2 168/8/2
f  169/9/3 163/10/3 165/11/3
f  163/10/3 169/9/3 170/12/3
f  171/13/3 170/12/3 169/9/3
f  170/14/81 166/15/81 163/16/81
f  166/15/86 170/14/86 168/17/86
f  170/18/6 171/19/6 167/20/6
f  170/18/39 167/20/39 168/21/39
f  169/22/83 167/23/83 171/24/83
f  167/23/87 169/22/87 164/25/87
f  169/22/85 165/26/85 164/25/85
f  172/1/80 173/2/80 174/3/80
f  173/2/80 172/1/80 175/4/80
f  175/5/2 176/6/2 173/7/2
f  176/6/2 175/5/2 177/8/2
f  178/9/3 172/10/3 174/11/3
f  172/10/3 178/9/3 179/12/3
f  180/13/3 179/12/3 178/9/3
f  179/14/81 175/15/81 172/16/81
f  175/15/88 179/14/88 177/17/88
f  179/18/6 180/19/6 176/20/6
f  179/18/5 176/20/5 177/21/5
f  178/22/83 176/23/83 180/24/83
f  176/23/89 178/22/89 173/25/89
f  178/22/85 174/26/85 173/25/85
f  181/1/90 182/2/90 183/3/90
f  182/2/90 181/1/90 184/4/90
f  184/5/2 185/6/2 182/7/2
f  185/6/2 184/5/2 186/8/2
f  187/9/3 181/10/3 183/11/3
f  181/10/3 187/9/3 188/12/3
f  189/13/3 188/12/3 187/9/3
f  188/14/91 184/15/91 181/16/91
f  184/15/92 188/14/92 186/17/92
f  188/18/93 189/19/93 185/20/93
f  188/18/94 185/20/94 186/21/94
f  187/22/95 185/23/95 189/24/95
f  185/23/96 187/22/96 182/25/96
f  187/22/97 183/26/97 182/25/97
f  190/1/98 191/2/98 192/3/98
f  191/2/98 190/1/98 193/4/98
f  193/5/2 194/6/2 191/7/2
f  194/6/2 193/5/2 195/8/2
f  196/12/3 197/9/3 198/13/3
f  190/10/3 197/9/3 196/12/3
f  197/9/3 190/10/3 192/11/3
f  196/14/99 193/15/99 190/16/99
f  193/15/100 196/14/100 195/17/100
f  196/18/101 198/19/101 194/20/101
f  196/18/102 194/20/102 195/21/102
f  197/22/103 194/23/103 198/24/103
f  194/23/104 197/22/104 191/25/104
f  197/22/105 192/26/105 191/25/105
f  199/1/98 200/2/98 201/3/98
f  200/2/98 199/1/98 202/4/98
f  202/5/2 203/6/2 200/7/2
f  203/6/2 202/5/2 204/8/2
f  205/12/3 206/9/3 207/13/3
f  199/10/3 206/9/3 205/12/3
f  206/9/3 199/10/3 201/11/3
f  205/14/99 202/15/99 199/16/99
f  202/15/106 205/14/106 204/17/106
f  205/18/101 207/19/101 203/20/101
f  205/18/102 203/20/102 204/21/102
f  206/22/103 203/23/103 207/24/103
f  203/23/107 206/22/107 200/25/107
f  206/22/108 201/26/108 200/25/108
f  208/1/98 209/2/98 210/3/98
f  209/2/98 208/1/98 211/4/98
f  211/5/2 212/6/2 209/7/2
f  212/6/2 211/5/2 213/8/2
f  214/12/3 215/9/3 216/13/3
f  208/10/3 215/9/3 214/12/3
f  215/9/3 208/10/3 210/11/3
f  214/14/99 211/15/99 208/16/99
f  211/15/109 214/14/109 213/17/109
f  214/18/101 216/19/101 212/20/101
f  214/18/110 212/20/110 213/21/110
f  215/22/103 212/23/103 216/24/103
f  212/23/111 215/22/111 209/25/111
f  215/22/108 210/26/108 209/25/108

